<mxfile host="app.diagrams.net" modified="2023-03-29T09:27:02.567Z" agent="Mozilla/5.0 (Windows NT 10.0; Win64; x64) AppleWebKit/537.36 (KHTML, like Gecko) Chrome/111.0.0.0 Safari/537.36" etag="TwnA8MJghx5mbiVR_2e2" version="21.1.1" type="device">
  <diagram id="R2lEEEUBdFMjLlhIrx00" name="RDO">
    <mxGraphModel dx="2015" dy="1300" grid="0" gridSize="10" guides="1" tooltips="1" connect="1" arrows="1" fold="1" page="0" pageScale="1" pageWidth="850" pageHeight="1100" math="0" shadow="0" extFonts="Permanent Marker^https://fonts.googleapis.com/css?family=Permanent+Marker">
      <root>
        <mxCell id="0" />
        <mxCell id="1" parent="0" />
        <mxCell id="C-vyLk0tnHw3VtMMgP7b-23" value="Ship" style="shape=table;startSize=30;container=1;collapsible=1;childLayout=tableLayout;fixedRows=1;rowLines=0;fontStyle=1;align=center;resizeLast=1;" parent="1" vertex="1">
          <mxGeometry x="-171" y="695" width="376" height="490.79" as="geometry" />
        </mxCell>
        <mxCell id="C-vyLk0tnHw3VtMMgP7b-24" value="" style="shape=partialRectangle;collapsible=0;dropTarget=0;pointerEvents=0;fillColor=none;points=[[0,0.5],[1,0.5]];portConstraint=eastwest;top=0;left=0;right=0;bottom=1;" parent="C-vyLk0tnHw3VtMMgP7b-23" vertex="1">
          <mxGeometry y="30" width="376" height="30" as="geometry" />
        </mxCell>
        <mxCell id="C-vyLk0tnHw3VtMMgP7b-25" value="PK" style="shape=partialRectangle;overflow=hidden;connectable=0;fillColor=none;top=0;left=0;bottom=0;right=0;fontStyle=1;" parent="C-vyLk0tnHw3VtMMgP7b-24" vertex="1">
          <mxGeometry width="30" height="30" as="geometry">
            <mxRectangle width="30" height="30" as="alternateBounds" />
          </mxGeometry>
        </mxCell>
        <mxCell id="C-vyLk0tnHw3VtMMgP7b-26" value="Id" style="shape=partialRectangle;overflow=hidden;connectable=0;fillColor=none;top=0;left=0;bottom=0;right=0;align=left;spacingLeft=6;fontStyle=1;" parent="C-vyLk0tnHw3VtMMgP7b-24" vertex="1">
          <mxGeometry x="30" width="257.15008544921875" height="30" as="geometry">
            <mxRectangle width="257.15008544921875" height="30" as="alternateBounds" />
          </mxGeometry>
        </mxCell>
        <mxCell id="ZHAqT1JrV2sS83vasKGE-10" value="int" style="shape=partialRectangle;overflow=hidden;connectable=0;fillColor=none;top=0;left=0;bottom=0;right=0;align=left;spacingLeft=6;fontStyle=0;" parent="C-vyLk0tnHw3VtMMgP7b-24" vertex="1">
          <mxGeometry x="287.15008544921875" width="88.84991455078125" height="30" as="geometry">
            <mxRectangle width="88.84991455078125" height="30" as="alternateBounds" />
          </mxGeometry>
        </mxCell>
        <mxCell id="C-vyLk0tnHw3VtMMgP7b-27" value="" style="shape=partialRectangle;collapsible=0;dropTarget=0;pointerEvents=0;fillColor=none;points=[[0,0.5],[1,0.5]];portConstraint=eastwest;top=0;left=0;right=0;bottom=0;" parent="C-vyLk0tnHw3VtMMgP7b-23" vertex="1">
          <mxGeometry y="60" width="376" height="30" as="geometry" />
        </mxCell>
        <mxCell id="C-vyLk0tnHw3VtMMgP7b-28" value="" style="shape=partialRectangle;overflow=hidden;connectable=0;fillColor=none;top=0;left=0;bottom=0;right=0;" parent="C-vyLk0tnHw3VtMMgP7b-27" vertex="1">
          <mxGeometry width="30" height="30" as="geometry">
            <mxRectangle width="30" height="30" as="alternateBounds" />
          </mxGeometry>
        </mxCell>
        <mxCell id="C-vyLk0tnHw3VtMMgP7b-29" value="Name" style="shape=partialRectangle;overflow=hidden;connectable=0;fillColor=none;top=0;left=0;bottom=0;right=0;align=left;spacingLeft=6;" parent="C-vyLk0tnHw3VtMMgP7b-27" vertex="1">
          <mxGeometry x="30" width="257.15008544921875" height="30" as="geometry">
            <mxRectangle width="257.15008544921875" height="30" as="alternateBounds" />
          </mxGeometry>
        </mxCell>
        <mxCell id="ZHAqT1JrV2sS83vasKGE-11" value="nvarchar(50)" style="shape=partialRectangle;overflow=hidden;connectable=0;fillColor=none;top=0;left=0;bottom=0;right=0;align=left;spacingLeft=6;" parent="C-vyLk0tnHw3VtMMgP7b-27" vertex="1">
          <mxGeometry x="287.15008544921875" width="88.84991455078125" height="30" as="geometry">
            <mxRectangle width="88.84991455078125" height="30" as="alternateBounds" />
          </mxGeometry>
        </mxCell>
        <mxCell id="ZHAqT1JrV2sS83vasKGE-7" style="shape=partialRectangle;collapsible=0;dropTarget=0;pointerEvents=0;fillColor=none;points=[[0,0.5],[1,0.5]];portConstraint=eastwest;top=0;left=0;right=0;bottom=0;" parent="C-vyLk0tnHw3VtMMgP7b-23" vertex="1">
          <mxGeometry y="90" width="376" height="30" as="geometry" />
        </mxCell>
        <mxCell id="ZHAqT1JrV2sS83vasKGE-8" style="shape=partialRectangle;overflow=hidden;connectable=0;fillColor=none;top=0;left=0;bottom=0;right=0;" parent="ZHAqT1JrV2sS83vasKGE-7" vertex="1">
          <mxGeometry width="30" height="30" as="geometry">
            <mxRectangle width="30" height="30" as="alternateBounds" />
          </mxGeometry>
        </mxCell>
        <mxCell id="ZHAqT1JrV2sS83vasKGE-9" value="MaxTeu" style="shape=partialRectangle;overflow=hidden;connectable=0;fillColor=none;top=0;left=0;bottom=0;right=0;align=left;spacingLeft=6;" parent="ZHAqT1JrV2sS83vasKGE-7" vertex="1">
          <mxGeometry x="30" width="257.15008544921875" height="30" as="geometry">
            <mxRectangle width="257.15008544921875" height="30" as="alternateBounds" />
          </mxGeometry>
        </mxCell>
        <mxCell id="ZHAqT1JrV2sS83vasKGE-12" value="int" style="shape=partialRectangle;overflow=hidden;connectable=0;fillColor=none;top=0;left=0;bottom=0;right=0;align=left;spacingLeft=6;" parent="ZHAqT1JrV2sS83vasKGE-7" vertex="1">
          <mxGeometry x="287.15008544921875" width="88.84991455078125" height="30" as="geometry">
            <mxRectangle width="88.84991455078125" height="30" as="alternateBounds" />
          </mxGeometry>
        </mxCell>
        <mxCell id="ZHAqT1JrV2sS83vasKGE-1" style="shape=partialRectangle;collapsible=0;dropTarget=0;pointerEvents=0;fillColor=none;points=[[0,0.5],[1,0.5]];portConstraint=eastwest;top=0;left=0;right=0;bottom=0;" parent="C-vyLk0tnHw3VtMMgP7b-23" vertex="1">
          <mxGeometry y="120" width="376" height="30" as="geometry" />
        </mxCell>
        <mxCell id="ZHAqT1JrV2sS83vasKGE-2" style="shape=partialRectangle;overflow=hidden;connectable=0;fillColor=none;top=0;left=0;bottom=0;right=0;" parent="ZHAqT1JrV2sS83vasKGE-1" vertex="1">
          <mxGeometry width="30" height="30" as="geometry">
            <mxRectangle width="30" height="30" as="alternateBounds" />
          </mxGeometry>
        </mxCell>
        <mxCell id="ZHAqT1JrV2sS83vasKGE-3" value="SpeedInKm    " style="shape=partialRectangle;overflow=hidden;connectable=0;fillColor=none;top=0;left=0;bottom=0;right=0;align=left;spacingLeft=6;" parent="ZHAqT1JrV2sS83vasKGE-1" vertex="1">
          <mxGeometry x="30" width="257.15008544921875" height="30" as="geometry">
            <mxRectangle width="257.15008544921875" height="30" as="alternateBounds" />
          </mxGeometry>
        </mxCell>
        <mxCell id="ZHAqT1JrV2sS83vasKGE-14" value="tinyint" style="shape=partialRectangle;overflow=hidden;connectable=0;fillColor=none;top=0;left=0;bottom=0;right=0;align=left;spacingLeft=6;" parent="ZHAqT1JrV2sS83vasKGE-1" vertex="1">
          <mxGeometry x="287.15008544921875" width="88.84991455078125" height="30" as="geometry">
            <mxRectangle width="88.84991455078125" height="30" as="alternateBounds" />
          </mxGeometry>
        </mxCell>
        <mxCell id="gjVu4_HeoYwnwXax0QVn-38" style="shape=partialRectangle;collapsible=0;dropTarget=0;pointerEvents=0;fillColor=none;points=[[0,0.5],[1,0.5]];portConstraint=eastwest;top=0;left=0;right=0;bottom=0;" parent="C-vyLk0tnHw3VtMMgP7b-23" vertex="1">
          <mxGeometry y="150" width="376" height="30" as="geometry" />
        </mxCell>
        <mxCell id="gjVu4_HeoYwnwXax0QVn-39" style="shape=partialRectangle;overflow=hidden;connectable=0;fillColor=none;top=0;left=0;bottom=0;right=0;" parent="gjVu4_HeoYwnwXax0QVn-38" vertex="1">
          <mxGeometry width="30" height="30" as="geometry">
            <mxRectangle width="30" height="30" as="alternateBounds" />
          </mxGeometry>
        </mxCell>
        <mxCell id="gjVu4_HeoYwnwXax0QVn-40" value="SpeedInKnots" style="shape=partialRectangle;overflow=hidden;connectable=0;fillColor=none;top=0;left=0;bottom=0;right=0;align=left;spacingLeft=6;" parent="gjVu4_HeoYwnwXax0QVn-38" vertex="1">
          <mxGeometry x="30" width="257.15008544921875" height="30" as="geometry">
            <mxRectangle width="257.15008544921875" height="30" as="alternateBounds" />
          </mxGeometry>
        </mxCell>
        <mxCell id="gjVu4_HeoYwnwXax0QVn-41" value="tinyint" style="shape=partialRectangle;overflow=hidden;connectable=0;fillColor=none;top=0;left=0;bottom=0;right=0;align=left;spacingLeft=6;" parent="gjVu4_HeoYwnwXax0QVn-38" vertex="1">
          <mxGeometry x="287.15008544921875" width="88.84991455078125" height="30" as="geometry">
            <mxRectangle width="88.84991455078125" height="30" as="alternateBounds" />
          </mxGeometry>
        </mxCell>
        <mxCell id="gjVu4_HeoYwnwXax0QVn-42" style="shape=partialRectangle;collapsible=0;dropTarget=0;pointerEvents=0;fillColor=none;points=[[0,0.5],[1,0.5]];portConstraint=eastwest;top=0;left=0;right=0;bottom=0;" parent="C-vyLk0tnHw3VtMMgP7b-23" vertex="1">
          <mxGeometry y="180" width="376" height="30" as="geometry" />
        </mxCell>
        <mxCell id="gjVu4_HeoYwnwXax0QVn-43" style="shape=partialRectangle;overflow=hidden;connectable=0;fillColor=none;top=0;left=0;bottom=0;right=0;" parent="gjVu4_HeoYwnwXax0QVn-42" vertex="1">
          <mxGeometry width="30" height="30" as="geometry">
            <mxRectangle width="30" height="30" as="alternateBounds" />
          </mxGeometry>
        </mxCell>
        <mxCell id="gjVu4_HeoYwnwXax0QVn-44" value="CountryIso3    " style="shape=partialRectangle;overflow=hidden;connectable=0;fillColor=none;top=0;left=0;bottom=0;right=0;align=left;spacingLeft=6;" parent="gjVu4_HeoYwnwXax0QVn-42" vertex="1">
          <mxGeometry x="30" width="257.15008544921875" height="30" as="geometry">
            <mxRectangle width="257.15008544921875" height="30" as="alternateBounds" />
          </mxGeometry>
        </mxCell>
        <mxCell id="gjVu4_HeoYwnwXax0QVn-45" value="nvarchar(50)" style="shape=partialRectangle;overflow=hidden;connectable=0;fillColor=none;top=0;left=0;bottom=0;right=0;align=left;spacingLeft=6;" parent="gjVu4_HeoYwnwXax0QVn-42" vertex="1">
          <mxGeometry x="287.15008544921875" width="88.84991455078125" height="30" as="geometry">
            <mxRectangle width="88.84991455078125" height="30" as="alternateBounds" />
          </mxGeometry>
        </mxCell>
        <mxCell id="gjVu4_HeoYwnwXax0QVn-47" style="shape=partialRectangle;collapsible=0;dropTarget=0;pointerEvents=0;fillColor=none;points=[[0,0.5],[1,0.5]];portConstraint=eastwest;top=0;left=0;right=0;bottom=0;" parent="C-vyLk0tnHw3VtMMgP7b-23" vertex="1">
          <mxGeometry y="210" width="376" height="30" as="geometry" />
        </mxCell>
        <mxCell id="gjVu4_HeoYwnwXax0QVn-48" style="shape=partialRectangle;overflow=hidden;connectable=0;fillColor=none;top=0;left=0;bottom=0;right=0;" parent="gjVu4_HeoYwnwXax0QVn-47" vertex="1">
          <mxGeometry width="30" height="30" as="geometry">
            <mxRectangle width="30" height="30" as="alternateBounds" />
          </mxGeometry>
        </mxCell>
        <mxCell id="gjVu4_HeoYwnwXax0QVn-49" value="YearcostEuro" style="shape=partialRectangle;overflow=hidden;connectable=0;fillColor=none;top=0;left=0;bottom=0;right=0;align=left;spacingLeft=6;" parent="gjVu4_HeoYwnwXax0QVn-47" vertex="1">
          <mxGeometry x="30" width="257.15008544921875" height="30" as="geometry">
            <mxRectangle width="257.15008544921875" height="30" as="alternateBounds" />
          </mxGeometry>
        </mxCell>
        <mxCell id="gjVu4_HeoYwnwXax0QVn-50" value="float" style="shape=partialRectangle;overflow=hidden;connectable=0;fillColor=none;top=0;left=0;bottom=0;right=0;align=left;spacingLeft=6;" parent="gjVu4_HeoYwnwXax0QVn-47" vertex="1">
          <mxGeometry x="287.15008544921875" width="88.84991455078125" height="30" as="geometry">
            <mxRectangle width="88.84991455078125" height="30" as="alternateBounds" />
          </mxGeometry>
        </mxCell>
        <mxCell id="ZHAqT1JrV2sS83vasKGE-23" style="shape=partialRectangle;collapsible=0;dropTarget=0;pointerEvents=0;fillColor=none;points=[[0,0.5],[1,0.5]];portConstraint=eastwest;top=0;left=0;right=0;bottom=0;" parent="C-vyLk0tnHw3VtMMgP7b-23" vertex="1">
          <mxGeometry y="240" width="376" height="30" as="geometry" />
        </mxCell>
        <mxCell id="ZHAqT1JrV2sS83vasKGE-24" style="shape=partialRectangle;overflow=hidden;connectable=0;fillColor=none;top=0;left=0;bottom=0;right=0;" parent="ZHAqT1JrV2sS83vasKGE-23" vertex="1">
          <mxGeometry width="30" height="30" as="geometry">
            <mxRectangle width="30" height="30" as="alternateBounds" />
          </mxGeometry>
        </mxCell>
        <mxCell id="ZHAqT1JrV2sS83vasKGE-25" value="LengthInM" style="shape=partialRectangle;overflow=hidden;connectable=0;fillColor=none;top=0;left=0;bottom=0;right=0;align=left;spacingLeft=6;" parent="ZHAqT1JrV2sS83vasKGE-23" vertex="1">
          <mxGeometry x="30" width="257.15008544921875" height="30" as="geometry">
            <mxRectangle width="257.15008544921875" height="30" as="alternateBounds" />
          </mxGeometry>
        </mxCell>
        <mxCell id="ZHAqT1JrV2sS83vasKGE-26" value="smalint" style="shape=partialRectangle;overflow=hidden;connectable=0;fillColor=none;top=0;left=0;bottom=0;right=0;align=left;spacingLeft=6;" parent="ZHAqT1JrV2sS83vasKGE-23" vertex="1">
          <mxGeometry x="287.15008544921875" width="88.84991455078125" height="30" as="geometry">
            <mxRectangle width="88.84991455078125" height="30" as="alternateBounds" />
          </mxGeometry>
        </mxCell>
        <mxCell id="gjVu4_HeoYwnwXax0QVn-51" style="shape=partialRectangle;collapsible=0;dropTarget=0;pointerEvents=0;fillColor=none;points=[[0,0.5],[1,0.5]];portConstraint=eastwest;top=0;left=0;right=0;bottom=0;" parent="C-vyLk0tnHw3VtMMgP7b-23" vertex="1">
          <mxGeometry y="270" width="376" height="30" as="geometry" />
        </mxCell>
        <mxCell id="gjVu4_HeoYwnwXax0QVn-52" style="shape=partialRectangle;overflow=hidden;connectable=0;fillColor=none;top=0;left=0;bottom=0;right=0;" parent="gjVu4_HeoYwnwXax0QVn-51" vertex="1">
          <mxGeometry width="30" height="30" as="geometry">
            <mxRectangle width="30" height="30" as="alternateBounds" />
          </mxGeometry>
        </mxCell>
        <mxCell id="gjVu4_HeoYwnwXax0QVn-53" value="WidthInM" style="shape=partialRectangle;overflow=hidden;connectable=0;fillColor=none;top=0;left=0;bottom=0;right=0;align=left;spacingLeft=6;" parent="gjVu4_HeoYwnwXax0QVn-51" vertex="1">
          <mxGeometry x="30" width="257.15008544921875" height="30" as="geometry">
            <mxRectangle width="257.15008544921875" height="30" as="alternateBounds" />
          </mxGeometry>
        </mxCell>
        <mxCell id="gjVu4_HeoYwnwXax0QVn-54" value="tinyint" style="shape=partialRectangle;overflow=hidden;connectable=0;fillColor=none;top=0;left=0;bottom=0;right=0;align=left;spacingLeft=6;" parent="gjVu4_HeoYwnwXax0QVn-51" vertex="1">
          <mxGeometry x="287.15008544921875" width="88.84991455078125" height="30" as="geometry">
            <mxRectangle width="88.84991455078125" height="30" as="alternateBounds" />
          </mxGeometry>
        </mxCell>
        <mxCell id="gjVu4_HeoYwnwXax0QVn-55" style="shape=partialRectangle;collapsible=0;dropTarget=0;pointerEvents=0;fillColor=none;points=[[0,0.5],[1,0.5]];portConstraint=eastwest;top=0;left=0;right=0;bottom=0;" parent="C-vyLk0tnHw3VtMMgP7b-23" vertex="1">
          <mxGeometry y="300" width="376" height="31" as="geometry" />
        </mxCell>
        <mxCell id="gjVu4_HeoYwnwXax0QVn-56" style="shape=partialRectangle;overflow=hidden;connectable=0;fillColor=none;top=0;left=0;bottom=0;right=0;" parent="gjVu4_HeoYwnwXax0QVn-55" vertex="1">
          <mxGeometry width="30" height="31" as="geometry">
            <mxRectangle width="30" height="31" as="alternateBounds" />
          </mxGeometry>
        </mxCell>
        <mxCell id="gjVu4_HeoYwnwXax0QVn-57" value="TotalFuelConsumptionInTonnes" style="shape=partialRectangle;overflow=hidden;connectable=0;fillColor=none;top=0;left=0;bottom=0;right=0;align=left;spacingLeft=6;" parent="gjVu4_HeoYwnwXax0QVn-55" vertex="1">
          <mxGeometry x="30" width="257.15008544921875" height="31" as="geometry">
            <mxRectangle width="257.15008544921875" height="31" as="alternateBounds" />
          </mxGeometry>
        </mxCell>
        <mxCell id="gjVu4_HeoYwnwXax0QVn-58" value="float" style="shape=partialRectangle;overflow=hidden;connectable=0;fillColor=none;top=0;left=0;bottom=0;right=0;align=left;spacingLeft=6;" parent="gjVu4_HeoYwnwXax0QVn-55" vertex="1">
          <mxGeometry x="287.15008544921875" width="88.84991455078125" height="31" as="geometry">
            <mxRectangle width="88.84991455078125" height="31" as="alternateBounds" />
          </mxGeometry>
        </mxCell>
        <mxCell id="gjVu4_HeoYwnwXax0QVn-59" style="shape=partialRectangle;collapsible=0;dropTarget=0;pointerEvents=0;fillColor=none;points=[[0,0.5],[1,0.5]];portConstraint=eastwest;top=0;left=0;right=0;bottom=0;" parent="C-vyLk0tnHw3VtMMgP7b-23" vertex="1">
          <mxGeometry y="331" width="376" height="30" as="geometry" />
        </mxCell>
        <mxCell id="gjVu4_HeoYwnwXax0QVn-60" style="shape=partialRectangle;overflow=hidden;connectable=0;fillColor=none;top=0;left=0;bottom=0;right=0;" parent="gjVu4_HeoYwnwXax0QVn-59" vertex="1">
          <mxGeometry width="30" height="30" as="geometry">
            <mxRectangle width="30" height="30" as="alternateBounds" />
          </mxGeometry>
        </mxCell>
        <mxCell id="gjVu4_HeoYwnwXax0QVn-61" value="TotalCo2EmissionsInTonnes" style="shape=partialRectangle;overflow=hidden;connectable=0;fillColor=none;top=0;left=0;bottom=0;right=0;align=left;spacingLeft=6;" parent="gjVu4_HeoYwnwXax0QVn-59" vertex="1">
          <mxGeometry x="30" width="257.15008544921875" height="30" as="geometry">
            <mxRectangle width="257.15008544921875" height="30" as="alternateBounds" />
          </mxGeometry>
        </mxCell>
        <mxCell id="gjVu4_HeoYwnwXax0QVn-62" value="float" style="shape=partialRectangle;overflow=hidden;connectable=0;fillColor=none;top=0;left=0;bottom=0;right=0;align=left;spacingLeft=6;" parent="gjVu4_HeoYwnwXax0QVn-59" vertex="1">
          <mxGeometry x="287.15008544921875" width="88.84991455078125" height="30" as="geometry">
            <mxRectangle width="88.84991455078125" height="30" as="alternateBounds" />
          </mxGeometry>
        </mxCell>
        <mxCell id="gjVu4_HeoYwnwXax0QVn-63" style="shape=partialRectangle;collapsible=0;dropTarget=0;pointerEvents=0;fillColor=none;points=[[0,0.5],[1,0.5]];portConstraint=eastwest;top=0;left=0;right=0;bottom=0;" parent="C-vyLk0tnHw3VtMMgP7b-23" vertex="1">
          <mxGeometry y="361" width="376" height="30" as="geometry" />
        </mxCell>
        <mxCell id="gjVu4_HeoYwnwXax0QVn-64" style="shape=partialRectangle;overflow=hidden;connectable=0;fillColor=none;top=0;left=0;bottom=0;right=0;" parent="gjVu4_HeoYwnwXax0QVn-63" vertex="1">
          <mxGeometry width="30" height="30" as="geometry">
            <mxRectangle width="30" height="30" as="alternateBounds" />
          </mxGeometry>
        </mxCell>
        <mxCell id="gjVu4_HeoYwnwXax0QVn-65" value="TotalTimeSpentAtSeaInHours" style="shape=partialRectangle;overflow=hidden;connectable=0;fillColor=none;top=0;left=0;bottom=0;right=0;align=left;spacingLeft=6;" parent="gjVu4_HeoYwnwXax0QVn-63" vertex="1">
          <mxGeometry x="30" width="257.15008544921875" height="30" as="geometry">
            <mxRectangle width="257.15008544921875" height="30" as="alternateBounds" />
          </mxGeometry>
        </mxCell>
        <mxCell id="gjVu4_HeoYwnwXax0QVn-66" value="int" style="shape=partialRectangle;overflow=hidden;connectable=0;fillColor=none;top=0;left=0;bottom=0;right=0;align=left;spacingLeft=6;" parent="gjVu4_HeoYwnwXax0QVn-63" vertex="1">
          <mxGeometry x="287.15008544921875" width="88.84991455078125" height="30" as="geometry">
            <mxRectangle width="88.84991455078125" height="30" as="alternateBounds" />
          </mxGeometry>
        </mxCell>
        <mxCell id="gjVu4_HeoYwnwXax0QVn-67" style="shape=partialRectangle;collapsible=0;dropTarget=0;pointerEvents=0;fillColor=none;points=[[0,0.5],[1,0.5]];portConstraint=eastwest;top=0;left=0;right=0;bottom=0;" parent="C-vyLk0tnHw3VtMMgP7b-23" vertex="1">
          <mxGeometry y="391" width="376" height="30" as="geometry" />
        </mxCell>
        <mxCell id="gjVu4_HeoYwnwXax0QVn-68" style="shape=partialRectangle;overflow=hidden;connectable=0;fillColor=none;top=0;left=0;bottom=0;right=0;" parent="gjVu4_HeoYwnwXax0QVn-67" vertex="1">
          <mxGeometry width="30" height="30" as="geometry">
            <mxRectangle width="30" height="30" as="alternateBounds" />
          </mxGeometry>
        </mxCell>
        <mxCell id="gjVu4_HeoYwnwXax0QVn-69" value="AnnualAverageFuelConsumptionKgPerNMile" style="shape=partialRectangle;overflow=hidden;connectable=0;fillColor=none;top=0;left=0;bottom=0;right=0;align=left;spacingLeft=6;" parent="gjVu4_HeoYwnwXax0QVn-67" vertex="1">
          <mxGeometry x="30" width="257.15008544921875" height="30" as="geometry">
            <mxRectangle width="257.15008544921875" height="30" as="alternateBounds" />
          </mxGeometry>
        </mxCell>
        <mxCell id="gjVu4_HeoYwnwXax0QVn-70" value="float" style="shape=partialRectangle;overflow=hidden;connectable=0;fillColor=none;top=0;left=0;bottom=0;right=0;align=left;spacingLeft=6;" parent="gjVu4_HeoYwnwXax0QVn-67" vertex="1">
          <mxGeometry x="287.15008544921875" width="88.84991455078125" height="30" as="geometry">
            <mxRectangle width="88.84991455078125" height="30" as="alternateBounds" />
          </mxGeometry>
        </mxCell>
        <mxCell id="e2aB3ARD7iVwylxIXB8S-1" style="shape=partialRectangle;collapsible=0;dropTarget=0;pointerEvents=0;fillColor=none;points=[[0,0.5],[1,0.5]];portConstraint=eastwest;top=0;left=0;right=0;bottom=0;" vertex="1" parent="C-vyLk0tnHw3VtMMgP7b-23">
          <mxGeometry y="421" width="376" height="30" as="geometry" />
        </mxCell>
        <mxCell id="e2aB3ARD7iVwylxIXB8S-2" style="shape=partialRectangle;overflow=hidden;connectable=0;fillColor=none;top=0;left=0;bottom=0;right=0;" vertex="1" parent="e2aB3ARD7iVwylxIXB8S-1">
          <mxGeometry width="30" height="30" as="geometry">
            <mxRectangle width="30" height="30" as="alternateBounds" />
          </mxGeometry>
        </mxCell>
        <mxCell id="e2aB3ARD7iVwylxIXB8S-3" value="AnnualAverageCo2EmissionKgPerNMile" style="shape=partialRectangle;overflow=hidden;connectable=0;fillColor=none;top=0;left=0;bottom=0;right=0;align=left;spacingLeft=6;" vertex="1" parent="e2aB3ARD7iVwylxIXB8S-1">
          <mxGeometry x="30" width="257.15008544921875" height="30" as="geometry">
            <mxRectangle width="257.15008544921875" height="30" as="alternateBounds" />
          </mxGeometry>
        </mxCell>
        <mxCell id="e2aB3ARD7iVwylxIXB8S-4" value="float" style="shape=partialRectangle;overflow=hidden;connectable=0;fillColor=none;top=0;left=0;bottom=0;right=0;align=left;spacingLeft=6;" vertex="1" parent="e2aB3ARD7iVwylxIXB8S-1">
          <mxGeometry x="287.15008544921875" width="88.84991455078125" height="30" as="geometry">
            <mxRectangle width="88.84991455078125" height="30" as="alternateBounds" />
          </mxGeometry>
        </mxCell>
        <mxCell id="e2aB3ARD7iVwylxIXB8S-5" style="shape=partialRectangle;collapsible=0;dropTarget=0;pointerEvents=0;fillColor=none;points=[[0,0.5],[1,0.5]];portConstraint=eastwest;top=0;left=0;right=0;bottom=0;" vertex="1" parent="C-vyLk0tnHw3VtMMgP7b-23">
          <mxGeometry y="451" width="376" height="30" as="geometry" />
        </mxCell>
        <mxCell id="e2aB3ARD7iVwylxIXB8S-6" style="shape=partialRectangle;overflow=hidden;connectable=0;fillColor=none;top=0;left=0;bottom=0;right=0;" vertex="1" parent="e2aB3ARD7iVwylxIXB8S-5">
          <mxGeometry width="30" height="30" as="geometry">
            <mxRectangle width="30" height="30" as="alternateBounds" />
          </mxGeometry>
        </mxCell>
        <mxCell id="e2aB3ARD7iVwylxIXB8S-7" value="MeasurementReportingDate" style="shape=partialRectangle;overflow=hidden;connectable=0;fillColor=none;top=0;left=0;bottom=0;right=0;align=left;spacingLeft=6;" vertex="1" parent="e2aB3ARD7iVwylxIXB8S-5">
          <mxGeometry x="30" width="257.15008544921875" height="30" as="geometry">
            <mxRectangle width="257.15008544921875" height="30" as="alternateBounds" />
          </mxGeometry>
        </mxCell>
        <mxCell id="e2aB3ARD7iVwylxIXB8S-8" value="date" style="shape=partialRectangle;overflow=hidden;connectable=0;fillColor=none;top=0;left=0;bottom=0;right=0;align=left;spacingLeft=6;" vertex="1" parent="e2aB3ARD7iVwylxIXB8S-5">
          <mxGeometry x="287.15008544921875" width="88.84991455078125" height="30" as="geometry">
            <mxRectangle width="88.84991455078125" height="30" as="alternateBounds" />
          </mxGeometry>
        </mxCell>
        <mxCell id="5pAEpDDECJuHS7MzD11g-5" value="Item" style="shape=table;startSize=30;container=1;collapsible=1;childLayout=tableLayout;fixedRows=1;rowLines=0;fontStyle=1;align=center;resizeLast=1;" parent="1" vertex="1">
          <mxGeometry x="543" y="629" width="210" height="190" as="geometry" />
        </mxCell>
        <mxCell id="5pAEpDDECJuHS7MzD11g-6" value="" style="shape=partialRectangle;collapsible=0;dropTarget=0;pointerEvents=0;fillColor=none;points=[[0,0.5],[1,0.5]];portConstraint=eastwest;top=0;left=0;right=0;bottom=1;" parent="5pAEpDDECJuHS7MzD11g-5" vertex="1">
          <mxGeometry y="30" width="210" height="30" as="geometry" />
        </mxCell>
        <mxCell id="5pAEpDDECJuHS7MzD11g-7" value="PK" style="shape=partialRectangle;overflow=hidden;connectable=0;fillColor=none;top=0;left=0;bottom=0;right=0;fontStyle=1;" parent="5pAEpDDECJuHS7MzD11g-6" vertex="1">
          <mxGeometry width="30" height="30" as="geometry">
            <mxRectangle width="30" height="30" as="alternateBounds" />
          </mxGeometry>
        </mxCell>
        <mxCell id="5pAEpDDECJuHS7MzD11g-8" value="Id" style="shape=partialRectangle;overflow=hidden;connectable=0;fillColor=none;top=0;left=0;bottom=0;right=0;align=left;spacingLeft=6;fontStyle=1;" parent="5pAEpDDECJuHS7MzD11g-6" vertex="1">
          <mxGeometry x="30" width="90" height="30" as="geometry">
            <mxRectangle width="90" height="30" as="alternateBounds" />
          </mxGeometry>
        </mxCell>
        <mxCell id="5pAEpDDECJuHS7MzD11g-9" value="int" style="shape=partialRectangle;overflow=hidden;connectable=0;fillColor=none;top=0;left=0;bottom=0;right=0;align=left;spacingLeft=6;fontStyle=0;" parent="5pAEpDDECJuHS7MzD11g-6" vertex="1">
          <mxGeometry x="120" width="90" height="30" as="geometry">
            <mxRectangle width="90" height="30" as="alternateBounds" />
          </mxGeometry>
        </mxCell>
        <mxCell id="5pAEpDDECJuHS7MzD11g-14" style="shape=partialRectangle;collapsible=0;dropTarget=0;pointerEvents=0;fillColor=none;points=[[0,0.5],[1,0.5]];portConstraint=eastwest;top=0;left=0;right=0;bottom=0;" parent="5pAEpDDECJuHS7MzD11g-5" vertex="1">
          <mxGeometry y="60" width="210" height="30" as="geometry" />
        </mxCell>
        <mxCell id="5pAEpDDECJuHS7MzD11g-15" style="shape=partialRectangle;overflow=hidden;connectable=0;fillColor=none;top=0;left=0;bottom=0;right=0;" parent="5pAEpDDECJuHS7MzD11g-14" vertex="1">
          <mxGeometry width="30" height="30" as="geometry">
            <mxRectangle width="30" height="30" as="alternateBounds" />
          </mxGeometry>
        </mxCell>
        <mxCell id="5pAEpDDECJuHS7MzD11g-16" value="Category" style="shape=partialRectangle;overflow=hidden;connectable=0;fillColor=none;top=0;left=0;bottom=0;right=0;align=left;spacingLeft=6;" parent="5pAEpDDECJuHS7MzD11g-14" vertex="1">
          <mxGeometry x="30" width="90" height="30" as="geometry">
            <mxRectangle width="90" height="30" as="alternateBounds" />
          </mxGeometry>
        </mxCell>
        <mxCell id="5pAEpDDECJuHS7MzD11g-17" value="nvarchar(50)" style="shape=partialRectangle;overflow=hidden;connectable=0;fillColor=none;top=0;left=0;bottom=0;right=0;align=left;spacingLeft=6;" parent="5pAEpDDECJuHS7MzD11g-14" vertex="1">
          <mxGeometry x="120" width="90" height="30" as="geometry">
            <mxRectangle width="90" height="30" as="alternateBounds" />
          </mxGeometry>
        </mxCell>
        <mxCell id="5pAEpDDECJuHS7MzD11g-18" style="shape=partialRectangle;collapsible=0;dropTarget=0;pointerEvents=0;fillColor=none;points=[[0,0.5],[1,0.5]];portConstraint=eastwest;top=0;left=0;right=0;bottom=0;" parent="5pAEpDDECJuHS7MzD11g-5" vertex="1">
          <mxGeometry y="90" width="210" height="30" as="geometry" />
        </mxCell>
        <mxCell id="5pAEpDDECJuHS7MzD11g-19" style="shape=partialRectangle;overflow=hidden;connectable=0;fillColor=none;top=0;left=0;bottom=0;right=0;" parent="5pAEpDDECJuHS7MzD11g-18" vertex="1">
          <mxGeometry width="30" height="30" as="geometry">
            <mxRectangle width="30" height="30" as="alternateBounds" />
          </mxGeometry>
        </mxCell>
        <mxCell id="5pAEpDDECJuHS7MzD11g-20" value="Manufacturer" style="shape=partialRectangle;overflow=hidden;connectable=0;fillColor=none;top=0;left=0;bottom=0;right=0;align=left;spacingLeft=6;" parent="5pAEpDDECJuHS7MzD11g-18" vertex="1">
          <mxGeometry x="30" width="90" height="30" as="geometry">
            <mxRectangle width="90" height="30" as="alternateBounds" />
          </mxGeometry>
        </mxCell>
        <mxCell id="5pAEpDDECJuHS7MzD11g-21" value="nvarchar(50)" style="shape=partialRectangle;overflow=hidden;connectable=0;fillColor=none;top=0;left=0;bottom=0;right=0;align=left;spacingLeft=6;" parent="5pAEpDDECJuHS7MzD11g-18" vertex="1">
          <mxGeometry x="120" width="90" height="30" as="geometry">
            <mxRectangle width="90" height="30" as="alternateBounds" />
          </mxGeometry>
        </mxCell>
        <mxCell id="5pAEpDDECJuHS7MzD11g-22" style="shape=partialRectangle;collapsible=0;dropTarget=0;pointerEvents=0;fillColor=none;points=[[0,0.5],[1,0.5]];portConstraint=eastwest;top=0;left=0;right=0;bottom=0;" parent="5pAEpDDECJuHS7MzD11g-5" vertex="1">
          <mxGeometry y="120" width="210" height="30" as="geometry" />
        </mxCell>
        <mxCell id="5pAEpDDECJuHS7MzD11g-23" style="shape=partialRectangle;overflow=hidden;connectable=0;fillColor=none;top=0;left=0;bottom=0;right=0;" parent="5pAEpDDECJuHS7MzD11g-22" vertex="1">
          <mxGeometry width="30" height="30" as="geometry">
            <mxRectangle width="30" height="30" as="alternateBounds" />
          </mxGeometry>
        </mxCell>
        <mxCell id="5pAEpDDECJuHS7MzD11g-24" value="Storagetype" style="shape=partialRectangle;overflow=hidden;connectable=0;fillColor=none;top=0;left=0;bottom=0;right=0;align=left;spacingLeft=6;" parent="5pAEpDDECJuHS7MzD11g-22" vertex="1">
          <mxGeometry x="30" width="90" height="30" as="geometry">
            <mxRectangle width="90" height="30" as="alternateBounds" />
          </mxGeometry>
        </mxCell>
        <mxCell id="5pAEpDDECJuHS7MzD11g-25" value="nvarchar(50)" style="shape=partialRectangle;overflow=hidden;connectable=0;fillColor=none;top=0;left=0;bottom=0;right=0;align=left;spacingLeft=6;" parent="5pAEpDDECJuHS7MzD11g-22" vertex="1">
          <mxGeometry x="120" width="90" height="30" as="geometry">
            <mxRectangle width="90" height="30" as="alternateBounds" />
          </mxGeometry>
        </mxCell>
        <mxCell id="5pAEpDDECJuHS7MzD11g-26" style="shape=partialRectangle;collapsible=0;dropTarget=0;pointerEvents=0;fillColor=none;points=[[0,0.5],[1,0.5]];portConstraint=eastwest;top=0;left=0;right=0;bottom=0;" parent="5pAEpDDECJuHS7MzD11g-5" vertex="1">
          <mxGeometry y="150" width="210" height="30" as="geometry" />
        </mxCell>
        <mxCell id="5pAEpDDECJuHS7MzD11g-27" style="shape=partialRectangle;overflow=hidden;connectable=0;fillColor=none;top=0;left=0;bottom=0;right=0;" parent="5pAEpDDECJuHS7MzD11g-26" vertex="1">
          <mxGeometry width="30" height="30" as="geometry">
            <mxRectangle width="30" height="30" as="alternateBounds" />
          </mxGeometry>
        </mxCell>
        <mxCell id="5pAEpDDECJuHS7MzD11g-28" value="Hazardflag" style="shape=partialRectangle;overflow=hidden;connectable=0;fillColor=none;top=0;left=0;bottom=0;right=0;align=left;spacingLeft=6;" parent="5pAEpDDECJuHS7MzD11g-26" vertex="1">
          <mxGeometry x="30" width="90" height="30" as="geometry">
            <mxRectangle width="90" height="30" as="alternateBounds" />
          </mxGeometry>
        </mxCell>
        <mxCell id="5pAEpDDECJuHS7MzD11g-29" value="nvarchar(50)" style="shape=partialRectangle;overflow=hidden;connectable=0;fillColor=none;top=0;left=0;bottom=0;right=0;align=left;spacingLeft=6;" parent="5pAEpDDECJuHS7MzD11g-26" vertex="1">
          <mxGeometry x="120" width="90" height="30" as="geometry">
            <mxRectangle width="90" height="30" as="alternateBounds" />
          </mxGeometry>
        </mxCell>
        <mxCell id="5pAEpDDECJuHS7MzD11g-62" value="Container" style="shape=table;startSize=30;container=1;collapsible=1;childLayout=tableLayout;fixedRows=1;rowLines=0;fontStyle=1;align=center;resizeLast=1;" parent="1" vertex="1">
          <mxGeometry x="828" y="376" width="241" height="190" as="geometry" />
        </mxCell>
        <mxCell id="5pAEpDDECJuHS7MzD11g-63" value="" style="shape=partialRectangle;collapsible=0;dropTarget=0;pointerEvents=0;fillColor=none;points=[[0,0.5],[1,0.5]];portConstraint=eastwest;top=0;left=0;right=0;bottom=1;" parent="5pAEpDDECJuHS7MzD11g-62" vertex="1">
          <mxGeometry y="30" width="241" height="30" as="geometry" />
        </mxCell>
        <mxCell id="5pAEpDDECJuHS7MzD11g-64" value="PK" style="shape=partialRectangle;overflow=hidden;connectable=0;fillColor=none;top=0;left=0;bottom=0;right=0;fontStyle=1;" parent="5pAEpDDECJuHS7MzD11g-63" vertex="1">
          <mxGeometry width="30" height="30" as="geometry">
            <mxRectangle width="30" height="30" as="alternateBounds" />
          </mxGeometry>
        </mxCell>
        <mxCell id="5pAEpDDECJuHS7MzD11g-65" value="Id" style="shape=partialRectangle;overflow=hidden;connectable=0;fillColor=none;top=0;left=0;bottom=0;right=0;align=left;spacingLeft=6;fontStyle=1;" parent="5pAEpDDECJuHS7MzD11g-63" vertex="1">
          <mxGeometry x="30" width="118.79162597656264" height="30" as="geometry">
            <mxRectangle width="118.79162597656264" height="30" as="alternateBounds" />
          </mxGeometry>
        </mxCell>
        <mxCell id="5pAEpDDECJuHS7MzD11g-66" value="int" style="shape=partialRectangle;overflow=hidden;connectable=0;fillColor=none;top=0;left=0;bottom=0;right=0;align=left;spacingLeft=6;fontStyle=0;" parent="5pAEpDDECJuHS7MzD11g-63" vertex="1">
          <mxGeometry x="148.79162597656264" width="92.20837402343736" height="30" as="geometry">
            <mxRectangle width="92.20837402343736" height="30" as="alternateBounds" />
          </mxGeometry>
        </mxCell>
        <mxCell id="5pAEpDDECJuHS7MzD11g-67" value="" style="shape=partialRectangle;collapsible=0;dropTarget=0;pointerEvents=0;fillColor=none;points=[[0,0.5],[1,0.5]];portConstraint=eastwest;top=0;left=0;right=0;bottom=0;" parent="5pAEpDDECJuHS7MzD11g-62" vertex="1">
          <mxGeometry y="60" width="241" height="30" as="geometry" />
        </mxCell>
        <mxCell id="5pAEpDDECJuHS7MzD11g-68" value="" style="shape=partialRectangle;overflow=hidden;connectable=0;fillColor=none;top=0;left=0;bottom=0;right=0;" parent="5pAEpDDECJuHS7MzD11g-67" vertex="1">
          <mxGeometry width="30" height="30" as="geometry">
            <mxRectangle width="30" height="30" as="alternateBounds" />
          </mxGeometry>
        </mxCell>
        <mxCell id="5pAEpDDECJuHS7MzD11g-69" value="Type" style="shape=partialRectangle;overflow=hidden;connectable=0;fillColor=none;top=0;left=0;bottom=0;right=0;align=left;spacingLeft=6;" parent="5pAEpDDECJuHS7MzD11g-67" vertex="1">
          <mxGeometry x="30" width="118.79162597656264" height="30" as="geometry">
            <mxRectangle width="118.79162597656264" height="30" as="alternateBounds" />
          </mxGeometry>
        </mxCell>
        <mxCell id="5pAEpDDECJuHS7MzD11g-70" value="nvarchar(50)" style="shape=partialRectangle;overflow=hidden;connectable=0;fillColor=none;top=0;left=0;bottom=0;right=0;align=left;spacingLeft=6;" parent="5pAEpDDECJuHS7MzD11g-67" vertex="1">
          <mxGeometry x="148.79162597656264" width="92.20837402343736" height="30" as="geometry">
            <mxRectangle width="92.20837402343736" height="30" as="alternateBounds" />
          </mxGeometry>
        </mxCell>
        <mxCell id="5pAEpDDECJuHS7MzD11g-71" style="shape=partialRectangle;collapsible=0;dropTarget=0;pointerEvents=0;fillColor=none;points=[[0,0.5],[1,0.5]];portConstraint=eastwest;top=0;left=0;right=0;bottom=0;" parent="5pAEpDDECJuHS7MzD11g-62" vertex="1">
          <mxGeometry y="90" width="241" height="30" as="geometry" />
        </mxCell>
        <mxCell id="5pAEpDDECJuHS7MzD11g-72" style="shape=partialRectangle;overflow=hidden;connectable=0;fillColor=none;top=0;left=0;bottom=0;right=0;" parent="5pAEpDDECJuHS7MzD11g-71" vertex="1">
          <mxGeometry width="30" height="30" as="geometry">
            <mxRectangle width="30" height="30" as="alternateBounds" />
          </mxGeometry>
        </mxCell>
        <mxCell id="5pAEpDDECJuHS7MzD11g-73" value="RefrigerationFlag" style="shape=partialRectangle;overflow=hidden;connectable=0;fillColor=none;top=0;left=0;bottom=0;right=0;align=left;spacingLeft=6;" parent="5pAEpDDECJuHS7MzD11g-71" vertex="1">
          <mxGeometry x="30" width="118.79162597656264" height="30" as="geometry">
            <mxRectangle width="118.79162597656264" height="30" as="alternateBounds" />
          </mxGeometry>
        </mxCell>
        <mxCell id="5pAEpDDECJuHS7MzD11g-74" value="tinyint" style="shape=partialRectangle;overflow=hidden;connectable=0;fillColor=none;top=0;left=0;bottom=0;right=0;align=left;spacingLeft=6;" parent="5pAEpDDECJuHS7MzD11g-71" vertex="1">
          <mxGeometry x="148.79162597656264" width="92.20837402343736" height="30" as="geometry">
            <mxRectangle width="92.20837402343736" height="30" as="alternateBounds" />
          </mxGeometry>
        </mxCell>
        <mxCell id="5pAEpDDECJuHS7MzD11g-87" style="shape=partialRectangle;collapsible=0;dropTarget=0;pointerEvents=0;fillColor=none;points=[[0,0.5],[1,0.5]];portConstraint=eastwest;top=0;left=0;right=0;bottom=0;" parent="5pAEpDDECJuHS7MzD11g-62" vertex="1">
          <mxGeometry y="120" width="241" height="30" as="geometry" />
        </mxCell>
        <mxCell id="5pAEpDDECJuHS7MzD11g-88" style="shape=partialRectangle;overflow=hidden;connectable=0;fillColor=none;top=0;left=0;bottom=0;right=0;" parent="5pAEpDDECJuHS7MzD11g-87" vertex="1">
          <mxGeometry width="30" height="30" as="geometry">
            <mxRectangle width="30" height="30" as="alternateBounds" />
          </mxGeometry>
        </mxCell>
        <mxCell id="5pAEpDDECJuHS7MzD11g-89" value="EuroPricePerNMile" style="shape=partialRectangle;overflow=hidden;connectable=0;fillColor=none;top=0;left=0;bottom=0;right=0;align=left;spacingLeft=6;" parent="5pAEpDDECJuHS7MzD11g-87" vertex="1">
          <mxGeometry x="30" width="118.79162597656264" height="30" as="geometry">
            <mxRectangle width="118.79162597656264" height="30" as="alternateBounds" />
          </mxGeometry>
        </mxCell>
        <mxCell id="5pAEpDDECJuHS7MzD11g-90" value="float" style="shape=partialRectangle;overflow=hidden;connectable=0;fillColor=none;top=0;left=0;bottom=0;right=0;align=left;spacingLeft=6;" parent="5pAEpDDECJuHS7MzD11g-87" vertex="1">
          <mxGeometry x="148.79162597656264" width="92.20837402343736" height="30" as="geometry">
            <mxRectangle width="92.20837402343736" height="30" as="alternateBounds" />
          </mxGeometry>
        </mxCell>
        <mxCell id="5pAEpDDECJuHS7MzD11g-91" style="shape=partialRectangle;collapsible=0;dropTarget=0;pointerEvents=0;fillColor=none;points=[[0,0.5],[1,0.5]];portConstraint=eastwest;top=0;left=0;right=0;bottom=0;" parent="5pAEpDDECJuHS7MzD11g-62" vertex="1">
          <mxGeometry y="150" width="241" height="30" as="geometry" />
        </mxCell>
        <mxCell id="5pAEpDDECJuHS7MzD11g-92" style="shape=partialRectangle;overflow=hidden;connectable=0;fillColor=none;top=0;left=0;bottom=0;right=0;" parent="5pAEpDDECJuHS7MzD11g-91" vertex="1">
          <mxGeometry width="30" height="30" as="geometry">
            <mxRectangle width="30" height="30" as="alternateBounds" />
          </mxGeometry>
        </mxCell>
        <mxCell id="5pAEpDDECJuHS7MzD11g-93" value="Teu" style="shape=partialRectangle;overflow=hidden;connectable=0;fillColor=none;top=0;left=0;bottom=0;right=0;align=left;spacingLeft=6;" parent="5pAEpDDECJuHS7MzD11g-91" vertex="1">
          <mxGeometry x="30" width="118.79162597656264" height="30" as="geometry">
            <mxRectangle width="118.79162597656264" height="30" as="alternateBounds" />
          </mxGeometry>
        </mxCell>
        <mxCell id="5pAEpDDECJuHS7MzD11g-94" value="int" style="shape=partialRectangle;overflow=hidden;connectable=0;fillColor=none;top=0;left=0;bottom=0;right=0;align=left;spacingLeft=6;" parent="5pAEpDDECJuHS7MzD11g-91" vertex="1">
          <mxGeometry x="148.79162597656264" width="92.20837402343736" height="30" as="geometry">
            <mxRectangle width="92.20837402343736" height="30" as="alternateBounds" />
          </mxGeometry>
        </mxCell>
        <mxCell id="5pAEpDDECJuHS7MzD11g-95" value="Consignor" style="shape=table;startSize=30;container=1;collapsible=1;childLayout=tableLayout;fixedRows=1;rowLines=0;fontStyle=1;align=center;resizeLast=1;" parent="1" vertex="1">
          <mxGeometry x="529" y="-178" width="238" height="190" as="geometry" />
        </mxCell>
        <mxCell id="5pAEpDDECJuHS7MzD11g-96" value="" style="shape=partialRectangle;collapsible=0;dropTarget=0;pointerEvents=0;fillColor=none;points=[[0,0.5],[1,0.5]];portConstraint=eastwest;top=0;left=0;right=0;bottom=1;" parent="5pAEpDDECJuHS7MzD11g-95" vertex="1">
          <mxGeometry y="30" width="238" height="30" as="geometry" />
        </mxCell>
        <mxCell id="5pAEpDDECJuHS7MzD11g-97" value="PK" style="shape=partialRectangle;overflow=hidden;connectable=0;fillColor=none;top=0;left=0;bottom=0;right=0;fontStyle=1;" parent="5pAEpDDECJuHS7MzD11g-96" vertex="1">
          <mxGeometry width="30" height="30" as="geometry">
            <mxRectangle width="30" height="30" as="alternateBounds" />
          </mxGeometry>
        </mxCell>
        <mxCell id="5pAEpDDECJuHS7MzD11g-98" value="Id" style="shape=partialRectangle;overflow=hidden;connectable=0;fillColor=none;top=0;left=0;bottom=0;right=0;align=left;spacingLeft=6;fontStyle=1;" parent="5pAEpDDECJuHS7MzD11g-96" vertex="1">
          <mxGeometry x="30" width="119.99999999999977" height="30" as="geometry">
            <mxRectangle width="119.99999999999977" height="30" as="alternateBounds" />
          </mxGeometry>
        </mxCell>
        <mxCell id="5pAEpDDECJuHS7MzD11g-99" value="int" style="shape=partialRectangle;overflow=hidden;connectable=0;fillColor=none;top=0;left=0;bottom=0;right=0;align=left;spacingLeft=6;fontStyle=0;" parent="5pAEpDDECJuHS7MzD11g-96" vertex="1">
          <mxGeometry x="149.99999999999977" width="88.00000000000023" height="30" as="geometry">
            <mxRectangle width="88.00000000000023" height="30" as="alternateBounds" />
          </mxGeometry>
        </mxCell>
        <mxCell id="5pAEpDDECJuHS7MzD11g-100" value="" style="shape=partialRectangle;collapsible=0;dropTarget=0;pointerEvents=0;fillColor=none;points=[[0,0.5],[1,0.5]];portConstraint=eastwest;top=0;left=0;right=0;bottom=0;" parent="5pAEpDDECJuHS7MzD11g-95" vertex="1">
          <mxGeometry y="60" width="238" height="30" as="geometry" />
        </mxCell>
        <mxCell id="5pAEpDDECJuHS7MzD11g-101" value="" style="shape=partialRectangle;overflow=hidden;connectable=0;fillColor=none;top=0;left=0;bottom=0;right=0;" parent="5pAEpDDECJuHS7MzD11g-100" vertex="1">
          <mxGeometry width="30" height="30" as="geometry">
            <mxRectangle width="30" height="30" as="alternateBounds" />
          </mxGeometry>
        </mxCell>
        <mxCell id="5pAEpDDECJuHS7MzD11g-102" value="Consignor" style="shape=partialRectangle;overflow=hidden;connectable=0;fillColor=none;top=0;left=0;bottom=0;right=0;align=left;spacingLeft=6;" parent="5pAEpDDECJuHS7MzD11g-100" vertex="1">
          <mxGeometry x="30" width="119.99999999999977" height="30" as="geometry">
            <mxRectangle width="119.99999999999977" height="30" as="alternateBounds" />
          </mxGeometry>
        </mxCell>
        <mxCell id="5pAEpDDECJuHS7MzD11g-103" value="nvarchar(50)" style="shape=partialRectangle;overflow=hidden;connectable=0;fillColor=none;top=0;left=0;bottom=0;right=0;align=left;spacingLeft=6;" parent="5pAEpDDECJuHS7MzD11g-100" vertex="1">
          <mxGeometry x="149.99999999999977" width="88.00000000000023" height="30" as="geometry">
            <mxRectangle width="88.00000000000023" height="30" as="alternateBounds" />
          </mxGeometry>
        </mxCell>
        <mxCell id="5pAEpDDECJuHS7MzD11g-104" style="shape=partialRectangle;collapsible=0;dropTarget=0;pointerEvents=0;fillColor=none;points=[[0,0.5],[1,0.5]];portConstraint=eastwest;top=0;left=0;right=0;bottom=0;" parent="5pAEpDDECJuHS7MzD11g-95" vertex="1">
          <mxGeometry y="90" width="238" height="30" as="geometry" />
        </mxCell>
        <mxCell id="5pAEpDDECJuHS7MzD11g-105" style="shape=partialRectangle;overflow=hidden;connectable=0;fillColor=none;top=0;left=0;bottom=0;right=0;" parent="5pAEpDDECJuHS7MzD11g-104" vertex="1">
          <mxGeometry width="30" height="30" as="geometry">
            <mxRectangle width="30" height="30" as="alternateBounds" />
          </mxGeometry>
        </mxCell>
        <mxCell id="5pAEpDDECJuHS7MzD11g-106" value="CountryIso3" style="shape=partialRectangle;overflow=hidden;connectable=0;fillColor=none;top=0;left=0;bottom=0;right=0;align=left;spacingLeft=6;" parent="5pAEpDDECJuHS7MzD11g-104" vertex="1">
          <mxGeometry x="30" width="119.99999999999977" height="30" as="geometry">
            <mxRectangle width="119.99999999999977" height="30" as="alternateBounds" />
          </mxGeometry>
        </mxCell>
        <mxCell id="5pAEpDDECJuHS7MzD11g-107" value="nvarchar(50)" style="shape=partialRectangle;overflow=hidden;connectable=0;fillColor=none;top=0;left=0;bottom=0;right=0;align=left;spacingLeft=6;" parent="5pAEpDDECJuHS7MzD11g-104" vertex="1">
          <mxGeometry x="149.99999999999977" width="88.00000000000023" height="30" as="geometry">
            <mxRectangle width="88.00000000000023" height="30" as="alternateBounds" />
          </mxGeometry>
        </mxCell>
        <mxCell id="5pAEpDDECJuHS7MzD11g-108" style="shape=partialRectangle;collapsible=0;dropTarget=0;pointerEvents=0;fillColor=none;points=[[0,0.5],[1,0.5]];portConstraint=eastwest;top=0;left=0;right=0;bottom=0;" parent="5pAEpDDECJuHS7MzD11g-95" vertex="1">
          <mxGeometry y="120" width="238" height="30" as="geometry" />
        </mxCell>
        <mxCell id="5pAEpDDECJuHS7MzD11g-109" style="shape=partialRectangle;overflow=hidden;connectable=0;fillColor=none;top=0;left=0;bottom=0;right=0;" parent="5pAEpDDECJuHS7MzD11g-108" vertex="1">
          <mxGeometry width="30" height="30" as="geometry">
            <mxRectangle width="30" height="30" as="alternateBounds" />
          </mxGeometry>
        </mxCell>
        <mxCell id="5pAEpDDECJuHS7MzD11g-110" value="DiscountPercentage" style="shape=partialRectangle;overflow=hidden;connectable=0;fillColor=none;top=0;left=0;bottom=0;right=0;align=left;spacingLeft=6;" parent="5pAEpDDECJuHS7MzD11g-108" vertex="1">
          <mxGeometry x="30" width="119.99999999999977" height="30" as="geometry">
            <mxRectangle width="119.99999999999977" height="30" as="alternateBounds" />
          </mxGeometry>
        </mxCell>
        <mxCell id="5pAEpDDECJuHS7MzD11g-111" value="tinyint" style="shape=partialRectangle;overflow=hidden;connectable=0;fillColor=none;top=0;left=0;bottom=0;right=0;align=left;spacingLeft=6;" parent="5pAEpDDECJuHS7MzD11g-108" vertex="1">
          <mxGeometry x="149.99999999999977" width="88.00000000000023" height="30" as="geometry">
            <mxRectangle width="88.00000000000023" height="30" as="alternateBounds" />
          </mxGeometry>
        </mxCell>
        <mxCell id="5pAEpDDECJuHS7MzD11g-112" style="shape=partialRectangle;collapsible=0;dropTarget=0;pointerEvents=0;fillColor=none;points=[[0,0.5],[1,0.5]];portConstraint=eastwest;top=0;left=0;right=0;bottom=0;" parent="5pAEpDDECJuHS7MzD11g-95" vertex="1">
          <mxGeometry y="150" width="238" height="30" as="geometry" />
        </mxCell>
        <mxCell id="5pAEpDDECJuHS7MzD11g-113" style="shape=partialRectangle;overflow=hidden;connectable=0;fillColor=none;top=0;left=0;bottom=0;right=0;" parent="5pAEpDDECJuHS7MzD11g-112" vertex="1">
          <mxGeometry width="30" height="30" as="geometry">
            <mxRectangle width="30" height="30" as="alternateBounds" />
          </mxGeometry>
        </mxCell>
        <mxCell id="5pAEpDDECJuHS7MzD11g-114" value="City" style="shape=partialRectangle;overflow=hidden;connectable=0;fillColor=none;top=0;left=0;bottom=0;right=0;align=left;spacingLeft=6;" parent="5pAEpDDECJuHS7MzD11g-112" vertex="1">
          <mxGeometry x="30" width="119.99999999999977" height="30" as="geometry">
            <mxRectangle width="119.99999999999977" height="30" as="alternateBounds" />
          </mxGeometry>
        </mxCell>
        <mxCell id="5pAEpDDECJuHS7MzD11g-115" value="nvarchar(50)" style="shape=partialRectangle;overflow=hidden;connectable=0;fillColor=none;top=0;left=0;bottom=0;right=0;align=left;spacingLeft=6;" parent="5pAEpDDECJuHS7MzD11g-112" vertex="1">
          <mxGeometry x="149.99999999999977" width="88.00000000000023" height="30" as="geometry">
            <mxRectangle width="88.00000000000023" height="30" as="alternateBounds" />
          </mxGeometry>
        </mxCell>
        <mxCell id="5pAEpDDECJuHS7MzD11g-120" value="Port" style="shape=table;startSize=30;container=1;collapsible=1;childLayout=tableLayout;fixedRows=1;rowLines=0;fontStyle=1;align=center;resizeLast=1;" parent="1" vertex="1">
          <mxGeometry x="75" y="87" width="293" height="220" as="geometry" />
        </mxCell>
        <mxCell id="5pAEpDDECJuHS7MzD11g-121" value="" style="shape=partialRectangle;collapsible=0;dropTarget=0;pointerEvents=0;fillColor=none;points=[[0,0.5],[1,0.5]];portConstraint=eastwest;top=0;left=0;right=0;bottom=1;" parent="5pAEpDDECJuHS7MzD11g-120" vertex="1">
          <mxGeometry y="30" width="293" height="30" as="geometry" />
        </mxCell>
        <mxCell id="5pAEpDDECJuHS7MzD11g-122" value="PK" style="shape=partialRectangle;overflow=hidden;connectable=0;fillColor=none;top=0;left=0;bottom=0;right=0;fontStyle=1;" parent="5pAEpDDECJuHS7MzD11g-121" vertex="1">
          <mxGeometry width="30" height="30" as="geometry">
            <mxRectangle width="30" height="30" as="alternateBounds" />
          </mxGeometry>
        </mxCell>
        <mxCell id="5pAEpDDECJuHS7MzD11g-123" value="Id" style="shape=partialRectangle;overflow=hidden;connectable=0;fillColor=none;top=0;left=0;bottom=0;right=0;align=left;spacingLeft=6;fontStyle=1;" parent="5pAEpDDECJuHS7MzD11g-121" vertex="1">
          <mxGeometry x="30" width="171.3529842601103" height="30" as="geometry">
            <mxRectangle width="171.3529842601103" height="30" as="alternateBounds" />
          </mxGeometry>
        </mxCell>
        <mxCell id="5pAEpDDECJuHS7MzD11g-124" value="int" style="shape=partialRectangle;overflow=hidden;connectable=0;fillColor=none;top=0;left=0;bottom=0;right=0;align=left;spacingLeft=6;fontStyle=0;" parent="5pAEpDDECJuHS7MzD11g-121" vertex="1">
          <mxGeometry x="201.3529842601103" width="91.6470157398897" height="30" as="geometry">
            <mxRectangle width="91.6470157398897" height="30" as="alternateBounds" />
          </mxGeometry>
        </mxCell>
        <mxCell id="5pAEpDDECJuHS7MzD11g-125" value="" style="shape=partialRectangle;collapsible=0;dropTarget=0;pointerEvents=0;fillColor=none;points=[[0,0.5],[1,0.5]];portConstraint=eastwest;top=0;left=0;right=0;bottom=0;" parent="5pAEpDDECJuHS7MzD11g-120" vertex="1">
          <mxGeometry y="60" width="293" height="30" as="geometry" />
        </mxCell>
        <mxCell id="5pAEpDDECJuHS7MzD11g-126" value="" style="shape=partialRectangle;overflow=hidden;connectable=0;fillColor=none;top=0;left=0;bottom=0;right=0;" parent="5pAEpDDECJuHS7MzD11g-125" vertex="1">
          <mxGeometry width="30" height="30" as="geometry">
            <mxRectangle width="30" height="30" as="alternateBounds" />
          </mxGeometry>
        </mxCell>
        <mxCell id="5pAEpDDECJuHS7MzD11g-127" value="PortSizeRank" style="shape=partialRectangle;overflow=hidden;connectable=0;fillColor=none;top=0;left=0;bottom=0;right=0;align=left;spacingLeft=6;" parent="5pAEpDDECJuHS7MzD11g-125" vertex="1">
          <mxGeometry x="30" width="171.3529842601103" height="30" as="geometry">
            <mxRectangle width="171.3529842601103" height="30" as="alternateBounds" />
          </mxGeometry>
        </mxCell>
        <mxCell id="5pAEpDDECJuHS7MzD11g-128" value="int" style="shape=partialRectangle;overflow=hidden;connectable=0;fillColor=none;top=0;left=0;bottom=0;right=0;align=left;spacingLeft=6;" parent="5pAEpDDECJuHS7MzD11g-125" vertex="1">
          <mxGeometry x="201.3529842601103" width="91.6470157398897" height="30" as="geometry">
            <mxRectangle width="91.6470157398897" height="30" as="alternateBounds" />
          </mxGeometry>
        </mxCell>
        <mxCell id="5pAEpDDECJuHS7MzD11g-129" style="shape=partialRectangle;collapsible=0;dropTarget=0;pointerEvents=0;fillColor=none;points=[[0,0.5],[1,0.5]];portConstraint=eastwest;top=0;left=0;right=0;bottom=0;" parent="5pAEpDDECJuHS7MzD11g-120" vertex="1">
          <mxGeometry y="90" width="293" height="30" as="geometry" />
        </mxCell>
        <mxCell id="5pAEpDDECJuHS7MzD11g-130" style="shape=partialRectangle;overflow=hidden;connectable=0;fillColor=none;top=0;left=0;bottom=0;right=0;" parent="5pAEpDDECJuHS7MzD11g-129" vertex="1">
          <mxGeometry width="30" height="30" as="geometry">
            <mxRectangle width="30" height="30" as="alternateBounds" />
          </mxGeometry>
        </mxCell>
        <mxCell id="5pAEpDDECJuHS7MzD11g-131" value="Name" style="shape=partialRectangle;overflow=hidden;connectable=0;fillColor=none;top=0;left=0;bottom=0;right=0;align=left;spacingLeft=6;" parent="5pAEpDDECJuHS7MzD11g-129" vertex="1">
          <mxGeometry x="30" width="171.3529842601103" height="30" as="geometry">
            <mxRectangle width="171.3529842601103" height="30" as="alternateBounds" />
          </mxGeometry>
        </mxCell>
        <mxCell id="5pAEpDDECJuHS7MzD11g-132" value="nvarchar(50)" style="shape=partialRectangle;overflow=hidden;connectable=0;fillColor=none;top=0;left=0;bottom=0;right=0;align=left;spacingLeft=6;" parent="5pAEpDDECJuHS7MzD11g-129" vertex="1">
          <mxGeometry x="201.3529842601103" width="91.6470157398897" height="30" as="geometry">
            <mxRectangle width="91.6470157398897" height="30" as="alternateBounds" />
          </mxGeometry>
        </mxCell>
        <mxCell id="5pAEpDDECJuHS7MzD11g-133" style="shape=partialRectangle;collapsible=0;dropTarget=0;pointerEvents=0;fillColor=none;points=[[0,0.5],[1,0.5]];portConstraint=eastwest;top=0;left=0;right=0;bottom=0;" parent="5pAEpDDECJuHS7MzD11g-120" vertex="1">
          <mxGeometry y="120" width="293" height="30" as="geometry" />
        </mxCell>
        <mxCell id="5pAEpDDECJuHS7MzD11g-134" style="shape=partialRectangle;overflow=hidden;connectable=0;fillColor=none;top=0;left=0;bottom=0;right=0;" parent="5pAEpDDECJuHS7MzD11g-133" vertex="1">
          <mxGeometry width="30" height="30" as="geometry">
            <mxRectangle width="30" height="30" as="alternateBounds" />
          </mxGeometry>
        </mxCell>
        <mxCell id="5pAEpDDECJuHS7MzD11g-135" value="CountryIso3" style="shape=partialRectangle;overflow=hidden;connectable=0;fillColor=none;top=0;left=0;bottom=0;right=0;align=left;spacingLeft=6;" parent="5pAEpDDECJuHS7MzD11g-133" vertex="1">
          <mxGeometry x="30" width="171.3529842601103" height="30" as="geometry">
            <mxRectangle width="171.3529842601103" height="30" as="alternateBounds" />
          </mxGeometry>
        </mxCell>
        <mxCell id="5pAEpDDECJuHS7MzD11g-136" value="nvarchar(50)" style="shape=partialRectangle;overflow=hidden;connectable=0;fillColor=none;top=0;left=0;bottom=0;right=0;align=left;spacingLeft=6;" parent="5pAEpDDECJuHS7MzD11g-133" vertex="1">
          <mxGeometry x="201.3529842601103" width="91.6470157398897" height="30" as="geometry">
            <mxRectangle width="91.6470157398897" height="30" as="alternateBounds" />
          </mxGeometry>
        </mxCell>
        <mxCell id="5pAEpDDECJuHS7MzD11g-244" style="shape=partialRectangle;collapsible=0;dropTarget=0;pointerEvents=0;fillColor=none;points=[[0,0.5],[1,0.5]];portConstraint=eastwest;top=0;left=0;right=0;bottom=0;" parent="5pAEpDDECJuHS7MzD11g-120" vertex="1">
          <mxGeometry y="150" width="293" height="30" as="geometry" />
        </mxCell>
        <mxCell id="5pAEpDDECJuHS7MzD11g-245" style="shape=partialRectangle;overflow=hidden;connectable=0;fillColor=none;top=0;left=0;bottom=0;right=0;" parent="5pAEpDDECJuHS7MzD11g-244" vertex="1">
          <mxGeometry width="30" height="30" as="geometry">
            <mxRectangle width="30" height="30" as="alternateBounds" />
          </mxGeometry>
        </mxCell>
        <mxCell id="5pAEpDDECJuHS7MzD11g-246" value="DistanceFromOsloInNMile" style="shape=partialRectangle;overflow=hidden;connectable=0;fillColor=none;top=0;left=0;bottom=0;right=0;align=left;spacingLeft=6;" parent="5pAEpDDECJuHS7MzD11g-244" vertex="1">
          <mxGeometry x="30" width="171.3529842601103" height="30" as="geometry">
            <mxRectangle width="171.3529842601103" height="30" as="alternateBounds" />
          </mxGeometry>
        </mxCell>
        <mxCell id="5pAEpDDECJuHS7MzD11g-247" style="shape=partialRectangle;overflow=hidden;connectable=0;fillColor=none;top=0;left=0;bottom=0;right=0;align=left;spacingLeft=6;" parent="5pAEpDDECJuHS7MzD11g-244" vertex="1">
          <mxGeometry x="201.3529842601103" width="91.6470157398897" height="30" as="geometry">
            <mxRectangle width="91.6470157398897" height="30" as="alternateBounds" />
          </mxGeometry>
        </mxCell>
        <mxCell id="5pAEpDDECJuHS7MzD11g-248" style="shape=partialRectangle;collapsible=0;dropTarget=0;pointerEvents=0;fillColor=none;points=[[0,0.5],[1,0.5]];portConstraint=eastwest;top=0;left=0;right=0;bottom=0;" parent="5pAEpDDECJuHS7MzD11g-120" vertex="1">
          <mxGeometry y="180" width="293" height="30" as="geometry" />
        </mxCell>
        <mxCell id="5pAEpDDECJuHS7MzD11g-249" style="shape=partialRectangle;overflow=hidden;connectable=0;fillColor=none;top=0;left=0;bottom=0;right=0;" parent="5pAEpDDECJuHS7MzD11g-248" vertex="1">
          <mxGeometry width="30" height="30" as="geometry">
            <mxRectangle width="30" height="30" as="alternateBounds" />
          </mxGeometry>
        </mxCell>
        <mxCell id="5pAEpDDECJuHS7MzD11g-250" value="DistanceFromPiraeusInNMile" style="shape=partialRectangle;overflow=hidden;connectable=0;fillColor=none;top=0;left=0;bottom=0;right=0;align=left;spacingLeft=6;" parent="5pAEpDDECJuHS7MzD11g-248" vertex="1">
          <mxGeometry x="30" width="171.3529842601103" height="30" as="geometry">
            <mxRectangle width="171.3529842601103" height="30" as="alternateBounds" />
          </mxGeometry>
        </mxCell>
        <mxCell id="5pAEpDDECJuHS7MzD11g-251" style="shape=partialRectangle;overflow=hidden;connectable=0;fillColor=none;top=0;left=0;bottom=0;right=0;align=left;spacingLeft=6;" parent="5pAEpDDECJuHS7MzD11g-248" vertex="1">
          <mxGeometry x="201.3529842601103" width="91.6470157398897" height="30" as="geometry">
            <mxRectangle width="91.6470157398897" height="30" as="alternateBounds" />
          </mxGeometry>
        </mxCell>
        <mxCell id="5pAEpDDECJuHS7MzD11g-162" value="Shipment" style="shape=table;startSize=30;container=1;collapsible=1;childLayout=tableLayout;fixedRows=1;rowLines=0;fontStyle=1;align=center;resizeLast=1;" parent="1" vertex="1">
          <mxGeometry x="536" y="87" width="224" height="250" as="geometry" />
        </mxCell>
        <mxCell id="5pAEpDDECJuHS7MzD11g-167" value="" style="shape=partialRectangle;collapsible=0;dropTarget=0;pointerEvents=0;fillColor=none;points=[[0,0.5],[1,0.5]];portConstraint=eastwest;top=0;left=0;right=0;bottom=0;" parent="5pAEpDDECJuHS7MzD11g-162" vertex="1">
          <mxGeometry y="30" width="224" height="30" as="geometry" />
        </mxCell>
        <mxCell id="5pAEpDDECJuHS7MzD11g-168" value="PK" style="shape=partialRectangle;overflow=hidden;connectable=0;fillColor=none;top=0;left=0;bottom=0;right=0;fontStyle=1" parent="5pAEpDDECJuHS7MzD11g-167" vertex="1">
          <mxGeometry width="50" height="30" as="geometry">
            <mxRectangle width="50" height="30" as="alternateBounds" />
          </mxGeometry>
        </mxCell>
        <mxCell id="5pAEpDDECJuHS7MzD11g-169" value="Id" style="shape=partialRectangle;overflow=hidden;connectable=0;fillColor=none;top=0;left=0;bottom=0;right=0;align=left;spacingLeft=6;" parent="5pAEpDDECJuHS7MzD11g-167" vertex="1">
          <mxGeometry x="50" width="136.6875762939453" height="30" as="geometry">
            <mxRectangle width="136.6875762939453" height="30" as="alternateBounds" />
          </mxGeometry>
        </mxCell>
        <mxCell id="5pAEpDDECJuHS7MzD11g-170" value="int" style="shape=partialRectangle;overflow=hidden;connectable=0;fillColor=none;top=0;left=0;bottom=0;right=0;align=left;spacingLeft=6;" parent="5pAEpDDECJuHS7MzD11g-167" vertex="1">
          <mxGeometry x="186.6875762939453" width="37.31242370605469" height="30" as="geometry">
            <mxRectangle width="37.31242370605469" height="30" as="alternateBounds" />
          </mxGeometry>
        </mxCell>
        <mxCell id="5pAEpDDECJuHS7MzD11g-309" style="shape=partialRectangle;collapsible=0;dropTarget=0;pointerEvents=0;fillColor=none;points=[[0,0.5],[1,0.5]];portConstraint=eastwest;top=0;left=0;right=0;bottom=0;" parent="5pAEpDDECJuHS7MzD11g-162" vertex="1">
          <mxGeometry y="60" width="224" height="30" as="geometry" />
        </mxCell>
        <mxCell id="5pAEpDDECJuHS7MzD11g-310" value="FK" style="shape=partialRectangle;overflow=hidden;connectable=0;fillColor=none;top=0;left=0;bottom=0;right=0;fontStyle=1" parent="5pAEpDDECJuHS7MzD11g-309" vertex="1">
          <mxGeometry width="50" height="30" as="geometry">
            <mxRectangle width="50" height="30" as="alternateBounds" />
          </mxGeometry>
        </mxCell>
        <mxCell id="5pAEpDDECJuHS7MzD11g-311" value="VoyageId    " style="shape=partialRectangle;overflow=hidden;connectable=0;fillColor=none;top=0;left=0;bottom=0;right=0;align=left;spacingLeft=6;" parent="5pAEpDDECJuHS7MzD11g-309" vertex="1">
          <mxGeometry x="50" width="136.6875762939453" height="30" as="geometry">
            <mxRectangle width="136.6875762939453" height="30" as="alternateBounds" />
          </mxGeometry>
        </mxCell>
        <mxCell id="5pAEpDDECJuHS7MzD11g-312" value="int" style="shape=partialRectangle;overflow=hidden;connectable=0;fillColor=none;top=0;left=0;bottom=0;right=0;align=left;spacingLeft=6;" parent="5pAEpDDECJuHS7MzD11g-309" vertex="1">
          <mxGeometry x="186.6875762939453" width="37.31242370605469" height="30" as="geometry">
            <mxRectangle width="37.31242370605469" height="30" as="alternateBounds" />
          </mxGeometry>
        </mxCell>
        <mxCell id="5pAEpDDECJuHS7MzD11g-171" style="shape=partialRectangle;collapsible=0;dropTarget=0;pointerEvents=0;fillColor=none;points=[[0,0.5],[1,0.5]];portConstraint=eastwest;top=0;left=0;right=0;bottom=0;" parent="5pAEpDDECJuHS7MzD11g-162" vertex="1">
          <mxGeometry y="90" width="224" height="30" as="geometry" />
        </mxCell>
        <mxCell id="5pAEpDDECJuHS7MzD11g-172" value="FK" style="shape=partialRectangle;overflow=hidden;connectable=0;fillColor=none;top=0;left=0;bottom=0;right=0;fontStyle=1" parent="5pAEpDDECJuHS7MzD11g-171" vertex="1">
          <mxGeometry width="50" height="30" as="geometry">
            <mxRectangle width="50" height="30" as="alternateBounds" />
          </mxGeometry>
        </mxCell>
        <mxCell id="5pAEpDDECJuHS7MzD11g-173" value="ConsignorId" style="shape=partialRectangle;overflow=hidden;connectable=0;fillColor=none;top=0;left=0;bottom=0;right=0;align=left;spacingLeft=6;" parent="5pAEpDDECJuHS7MzD11g-171" vertex="1">
          <mxGeometry x="50" width="136.6875762939453" height="30" as="geometry">
            <mxRectangle width="136.6875762939453" height="30" as="alternateBounds" />
          </mxGeometry>
        </mxCell>
        <mxCell id="5pAEpDDECJuHS7MzD11g-174" value="int" style="shape=partialRectangle;overflow=hidden;connectable=0;fillColor=none;top=0;left=0;bottom=0;right=0;align=left;spacingLeft=6;" parent="5pAEpDDECJuHS7MzD11g-171" vertex="1">
          <mxGeometry x="186.6875762939453" width="37.31242370605469" height="30" as="geometry">
            <mxRectangle width="37.31242370605469" height="30" as="alternateBounds" />
          </mxGeometry>
        </mxCell>
        <mxCell id="5pAEpDDECJuHS7MzD11g-292" style="shape=partialRectangle;collapsible=0;dropTarget=0;pointerEvents=0;fillColor=none;points=[[0,0.5],[1,0.5]];portConstraint=eastwest;top=0;left=0;right=0;bottom=0;" parent="5pAEpDDECJuHS7MzD11g-162" vertex="1">
          <mxGeometry y="120" width="224" height="30" as="geometry" />
        </mxCell>
        <mxCell id="5pAEpDDECJuHS7MzD11g-293" value="FK" style="shape=partialRectangle;overflow=hidden;connectable=0;fillColor=none;top=0;left=0;bottom=0;right=0;fontStyle=1" parent="5pAEpDDECJuHS7MzD11g-292" vertex="1">
          <mxGeometry width="50" height="30" as="geometry">
            <mxRectangle width="50" height="30" as="alternateBounds" />
          </mxGeometry>
        </mxCell>
        <mxCell id="5pAEpDDECJuHS7MzD11g-294" value="PortIdFrom" style="shape=partialRectangle;overflow=hidden;connectable=0;fillColor=none;top=0;left=0;bottom=0;right=0;align=left;spacingLeft=6;" parent="5pAEpDDECJuHS7MzD11g-292" vertex="1">
          <mxGeometry x="50" width="136.6875762939453" height="30" as="geometry">
            <mxRectangle width="136.6875762939453" height="30" as="alternateBounds" />
          </mxGeometry>
        </mxCell>
        <mxCell id="5pAEpDDECJuHS7MzD11g-295" value="int" style="shape=partialRectangle;overflow=hidden;connectable=0;fillColor=none;top=0;left=0;bottom=0;right=0;align=left;spacingLeft=6;" parent="5pAEpDDECJuHS7MzD11g-292" vertex="1">
          <mxGeometry x="186.6875762939453" width="37.31242370605469" height="30" as="geometry">
            <mxRectangle width="37.31242370605469" height="30" as="alternateBounds" />
          </mxGeometry>
        </mxCell>
        <mxCell id="5pAEpDDECJuHS7MzD11g-288" style="shape=partialRectangle;collapsible=0;dropTarget=0;pointerEvents=0;fillColor=none;points=[[0,0.5],[1,0.5]];portConstraint=eastwest;top=0;left=0;right=0;bottom=0;" parent="5pAEpDDECJuHS7MzD11g-162" vertex="1">
          <mxGeometry y="150" width="224" height="30" as="geometry" />
        </mxCell>
        <mxCell id="5pAEpDDECJuHS7MzD11g-289" value="FK" style="shape=partialRectangle;overflow=hidden;connectable=0;fillColor=none;top=0;left=0;bottom=0;right=0;fontStyle=1" parent="5pAEpDDECJuHS7MzD11g-288" vertex="1">
          <mxGeometry width="50" height="30" as="geometry">
            <mxRectangle width="50" height="30" as="alternateBounds" />
          </mxGeometry>
        </mxCell>
        <mxCell id="5pAEpDDECJuHS7MzD11g-290" value="PortIdTo" style="shape=partialRectangle;overflow=hidden;connectable=0;fillColor=none;top=0;left=0;bottom=0;right=0;align=left;spacingLeft=6;" parent="5pAEpDDECJuHS7MzD11g-288" vertex="1">
          <mxGeometry x="50" width="136.6875762939453" height="30" as="geometry">
            <mxRectangle width="136.6875762939453" height="30" as="alternateBounds" />
          </mxGeometry>
        </mxCell>
        <mxCell id="5pAEpDDECJuHS7MzD11g-291" value="int" style="shape=partialRectangle;overflow=hidden;connectable=0;fillColor=none;top=0;left=0;bottom=0;right=0;align=left;spacingLeft=6;" parent="5pAEpDDECJuHS7MzD11g-288" vertex="1">
          <mxGeometry x="186.6875762939453" width="37.31242370605469" height="30" as="geometry">
            <mxRectangle width="37.31242370605469" height="30" as="alternateBounds" />
          </mxGeometry>
        </mxCell>
        <mxCell id="5pAEpDDECJuHS7MzD11g-183" style="shape=partialRectangle;collapsible=0;dropTarget=0;pointerEvents=0;fillColor=none;points=[[0,0.5],[1,0.5]];portConstraint=eastwest;top=0;left=0;right=0;bottom=0;" parent="5pAEpDDECJuHS7MzD11g-162" vertex="1">
          <mxGeometry y="180" width="224" height="30" as="geometry" />
        </mxCell>
        <mxCell id="5pAEpDDECJuHS7MzD11g-184" style="shape=partialRectangle;overflow=hidden;connectable=0;fillColor=none;top=0;left=0;bottom=0;right=0;fontStyle=1" parent="5pAEpDDECJuHS7MzD11g-183" vertex="1">
          <mxGeometry width="50" height="30" as="geometry">
            <mxRectangle width="50" height="30" as="alternateBounds" />
          </mxGeometry>
        </mxCell>
        <mxCell id="5pAEpDDECJuHS7MzD11g-185" value="DistanceInNMile" style="shape=partialRectangle;overflow=hidden;connectable=0;fillColor=none;top=0;left=0;bottom=0;right=0;align=left;spacingLeft=6;" parent="5pAEpDDECJuHS7MzD11g-183" vertex="1">
          <mxGeometry x="50" width="136.6875762939453" height="30" as="geometry">
            <mxRectangle width="136.6875762939453" height="30" as="alternateBounds" />
          </mxGeometry>
        </mxCell>
        <mxCell id="5pAEpDDECJuHS7MzD11g-186" value="float" style="shape=partialRectangle;overflow=hidden;connectable=0;fillColor=none;top=0;left=0;bottom=0;right=0;align=left;spacingLeft=6;" parent="5pAEpDDECJuHS7MzD11g-183" vertex="1">
          <mxGeometry x="186.6875762939453" width="37.31242370605469" height="30" as="geometry">
            <mxRectangle width="37.31242370605469" height="30" as="alternateBounds" />
          </mxGeometry>
        </mxCell>
        <mxCell id="gjVu4_HeoYwnwXax0QVn-1" style="shape=partialRectangle;collapsible=0;dropTarget=0;pointerEvents=0;fillColor=none;points=[[0,0.5],[1,0.5]];portConstraint=eastwest;top=0;left=0;right=0;bottom=0;" parent="5pAEpDDECJuHS7MzD11g-162" vertex="1">
          <mxGeometry y="210" width="224" height="30" as="geometry" />
        </mxCell>
        <mxCell id="gjVu4_HeoYwnwXax0QVn-2" style="shape=partialRectangle;overflow=hidden;connectable=0;fillColor=none;top=0;left=0;bottom=0;right=0;fontStyle=1" parent="gjVu4_HeoYwnwXax0QVn-1" vertex="1">
          <mxGeometry width="50" height="30" as="geometry">
            <mxRectangle width="50" height="30" as="alternateBounds" />
          </mxGeometry>
        </mxCell>
        <mxCell id="gjVu4_HeoYwnwXax0QVn-3" value="NumberContainer       " style="shape=partialRectangle;overflow=hidden;connectable=0;fillColor=none;top=0;left=0;bottom=0;right=0;align=left;spacingLeft=6;" parent="gjVu4_HeoYwnwXax0QVn-1" vertex="1">
          <mxGeometry x="50" width="136.6875762939453" height="30" as="geometry">
            <mxRectangle width="136.6875762939453" height="30" as="alternateBounds" />
          </mxGeometry>
        </mxCell>
        <mxCell id="gjVu4_HeoYwnwXax0QVn-4" value="int" style="shape=partialRectangle;overflow=hidden;connectable=0;fillColor=none;top=0;left=0;bottom=0;right=0;align=left;spacingLeft=6;" parent="gjVu4_HeoYwnwXax0QVn-1" vertex="1">
          <mxGeometry x="186.6875762939453" width="37.31242370605469" height="30" as="geometry">
            <mxRectangle width="37.31242370605469" height="30" as="alternateBounds" />
          </mxGeometry>
        </mxCell>
        <mxCell id="5pAEpDDECJuHS7MzD11g-196" value="Voyage" style="shape=table;startSize=30;container=1;collapsible=1;childLayout=tableLayout;fixedRows=1;rowLines=0;fontStyle=1;align=center;resizeLast=1;" parent="1" vertex="1">
          <mxGeometry x="-171" y="443" width="180" height="190" as="geometry" />
        </mxCell>
        <mxCell id="5pAEpDDECJuHS7MzD11g-197" value="" style="shape=partialRectangle;collapsible=0;dropTarget=0;pointerEvents=0;fillColor=none;points=[[0,0.5],[1,0.5]];portConstraint=eastwest;top=0;left=0;right=0;bottom=1;" parent="5pAEpDDECJuHS7MzD11g-196" vertex="1">
          <mxGeometry y="30" width="180" height="30" as="geometry" />
        </mxCell>
        <mxCell id="5pAEpDDECJuHS7MzD11g-198" value="PK" style="shape=partialRectangle;overflow=hidden;connectable=0;fillColor=none;top=0;left=0;bottom=0;right=0;fontStyle=1;" parent="5pAEpDDECJuHS7MzD11g-197" vertex="1">
          <mxGeometry width="30" height="30" as="geometry">
            <mxRectangle width="30" height="30" as="alternateBounds" />
          </mxGeometry>
        </mxCell>
        <mxCell id="5pAEpDDECJuHS7MzD11g-199" value="Id" style="shape=partialRectangle;overflow=hidden;connectable=0;fillColor=none;top=0;left=0;bottom=0;right=0;align=left;spacingLeft=6;fontStyle=1;" parent="5pAEpDDECJuHS7MzD11g-197" vertex="1">
          <mxGeometry x="30" width="100" height="30" as="geometry">
            <mxRectangle width="100" height="30" as="alternateBounds" />
          </mxGeometry>
        </mxCell>
        <mxCell id="5pAEpDDECJuHS7MzD11g-200" value="int" style="shape=partialRectangle;overflow=hidden;connectable=0;fillColor=none;top=0;left=0;bottom=0;right=0;align=left;spacingLeft=6;fontStyle=0;" parent="5pAEpDDECJuHS7MzD11g-197" vertex="1">
          <mxGeometry x="130" width="50" height="30" as="geometry">
            <mxRectangle width="50" height="30" as="alternateBounds" />
          </mxGeometry>
        </mxCell>
        <mxCell id="5pAEpDDECJuHS7MzD11g-209" style="shape=partialRectangle;collapsible=0;dropTarget=0;pointerEvents=0;fillColor=none;points=[[0,0.5],[1,0.5]];portConstraint=eastwest;top=0;left=0;right=0;bottom=0;" parent="5pAEpDDECJuHS7MzD11g-196" vertex="1">
          <mxGeometry y="60" width="180" height="30" as="geometry" />
        </mxCell>
        <mxCell id="5pAEpDDECJuHS7MzD11g-210" value="FK" style="shape=partialRectangle;overflow=hidden;connectable=0;fillColor=none;top=0;left=0;bottom=0;right=0;fontStyle=1" parent="5pAEpDDECJuHS7MzD11g-209" vertex="1">
          <mxGeometry width="30" height="30" as="geometry">
            <mxRectangle width="30" height="30" as="alternateBounds" />
          </mxGeometry>
        </mxCell>
        <mxCell id="5pAEpDDECJuHS7MzD11g-211" value="ShipId" style="shape=partialRectangle;overflow=hidden;connectable=0;fillColor=none;top=0;left=0;bottom=0;right=0;align=left;spacingLeft=6;" parent="5pAEpDDECJuHS7MzD11g-209" vertex="1">
          <mxGeometry x="30" width="100" height="30" as="geometry">
            <mxRectangle width="100" height="30" as="alternateBounds" />
          </mxGeometry>
        </mxCell>
        <mxCell id="5pAEpDDECJuHS7MzD11g-212" value="int" style="shape=partialRectangle;overflow=hidden;connectable=0;fillColor=none;top=0;left=0;bottom=0;right=0;align=left;spacingLeft=6;" parent="5pAEpDDECJuHS7MzD11g-209" vertex="1">
          <mxGeometry x="130" width="50" height="30" as="geometry">
            <mxRectangle width="50" height="30" as="alternateBounds" />
          </mxGeometry>
        </mxCell>
        <mxCell id="5pAEpDDECJuHS7MzD11g-213" style="shape=partialRectangle;collapsible=0;dropTarget=0;pointerEvents=0;fillColor=none;points=[[0,0.5],[1,0.5]];portConstraint=eastwest;top=0;left=0;right=0;bottom=0;" parent="5pAEpDDECJuHS7MzD11g-196" vertex="1">
          <mxGeometry y="90" width="180" height="30" as="geometry" />
        </mxCell>
        <mxCell id="5pAEpDDECJuHS7MzD11g-214" value="FK" style="shape=partialRectangle;overflow=hidden;connectable=0;fillColor=none;top=0;left=0;bottom=0;right=0;fontStyle=1" parent="5pAEpDDECJuHS7MzD11g-213" vertex="1">
          <mxGeometry width="30" height="30" as="geometry">
            <mxRectangle width="30" height="30" as="alternateBounds" />
          </mxGeometry>
        </mxCell>
        <mxCell id="5pAEpDDECJuHS7MzD11g-215" value="PortIdFrom" style="shape=partialRectangle;overflow=hidden;connectable=0;fillColor=none;top=0;left=0;bottom=0;right=0;align=left;spacingLeft=6;" parent="5pAEpDDECJuHS7MzD11g-213" vertex="1">
          <mxGeometry x="30" width="100" height="30" as="geometry">
            <mxRectangle width="100" height="30" as="alternateBounds" />
          </mxGeometry>
        </mxCell>
        <mxCell id="5pAEpDDECJuHS7MzD11g-216" value="int" style="shape=partialRectangle;overflow=hidden;connectable=0;fillColor=none;top=0;left=0;bottom=0;right=0;align=left;spacingLeft=6;" parent="5pAEpDDECJuHS7MzD11g-213" vertex="1">
          <mxGeometry x="130" width="50" height="30" as="geometry">
            <mxRectangle width="50" height="30" as="alternateBounds" />
          </mxGeometry>
        </mxCell>
        <mxCell id="5pAEpDDECJuHS7MzD11g-363" style="shape=partialRectangle;collapsible=0;dropTarget=0;pointerEvents=0;fillColor=none;points=[[0,0.5],[1,0.5]];portConstraint=eastwest;top=0;left=0;right=0;bottom=0;" parent="5pAEpDDECJuHS7MzD11g-196" vertex="1">
          <mxGeometry y="120" width="180" height="30" as="geometry" />
        </mxCell>
        <mxCell id="5pAEpDDECJuHS7MzD11g-364" value="FK" style="shape=partialRectangle;overflow=hidden;connectable=0;fillColor=none;top=0;left=0;bottom=0;right=0;fontStyle=1" parent="5pAEpDDECJuHS7MzD11g-363" vertex="1">
          <mxGeometry width="30" height="30" as="geometry">
            <mxRectangle width="30" height="30" as="alternateBounds" />
          </mxGeometry>
        </mxCell>
        <mxCell id="5pAEpDDECJuHS7MzD11g-365" value="PortIdTo" style="shape=partialRectangle;overflow=hidden;connectable=0;fillColor=none;top=0;left=0;bottom=0;right=0;align=left;spacingLeft=6;" parent="5pAEpDDECJuHS7MzD11g-363" vertex="1">
          <mxGeometry x="30" width="100" height="30" as="geometry">
            <mxRectangle width="100" height="30" as="alternateBounds" />
          </mxGeometry>
        </mxCell>
        <mxCell id="5pAEpDDECJuHS7MzD11g-366" value="int" style="shape=partialRectangle;overflow=hidden;connectable=0;fillColor=none;top=0;left=0;bottom=0;right=0;align=left;spacingLeft=6;" parent="5pAEpDDECJuHS7MzD11g-363" vertex="1">
          <mxGeometry x="130" width="50" height="30" as="geometry">
            <mxRectangle width="50" height="30" as="alternateBounds" />
          </mxGeometry>
        </mxCell>
        <mxCell id="gjVu4_HeoYwnwXax0QVn-34" style="shape=partialRectangle;collapsible=0;dropTarget=0;pointerEvents=0;fillColor=none;points=[[0,0.5],[1,0.5]];portConstraint=eastwest;top=0;left=0;right=0;bottom=0;" parent="5pAEpDDECJuHS7MzD11g-196" vertex="1">
          <mxGeometry y="150" width="180" height="30" as="geometry" />
        </mxCell>
        <mxCell id="gjVu4_HeoYwnwXax0QVn-35" style="shape=partialRectangle;overflow=hidden;connectable=0;fillColor=none;top=0;left=0;bottom=0;right=0;fontStyle=1" parent="gjVu4_HeoYwnwXax0QVn-34" vertex="1">
          <mxGeometry width="30" height="30" as="geometry">
            <mxRectangle width="30" height="30" as="alternateBounds" />
          </mxGeometry>
        </mxCell>
        <mxCell id="gjVu4_HeoYwnwXax0QVn-36" value="DepartureDate    date" style="shape=partialRectangle;overflow=hidden;connectable=0;fillColor=none;top=0;left=0;bottom=0;right=0;align=left;spacingLeft=6;" parent="gjVu4_HeoYwnwXax0QVn-34" vertex="1">
          <mxGeometry x="30" width="100" height="30" as="geometry">
            <mxRectangle width="100" height="30" as="alternateBounds" />
          </mxGeometry>
        </mxCell>
        <mxCell id="gjVu4_HeoYwnwXax0QVn-37" value="date" style="shape=partialRectangle;overflow=hidden;connectable=0;fillColor=none;top=0;left=0;bottom=0;right=0;align=left;spacingLeft=6;" parent="gjVu4_HeoYwnwXax0QVn-34" vertex="1">
          <mxGeometry x="130" width="50" height="30" as="geometry">
            <mxRectangle width="50" height="30" as="alternateBounds" />
          </mxGeometry>
        </mxCell>
        <mxCell id="gjVu4_HeoYwnwXax0QVn-5" value="Shipment_Detail" style="shape=table;startSize=30;container=1;collapsible=1;childLayout=tableLayout;fixedRows=1;rowLines=0;fontStyle=1;align=center;resizeLast=1;" parent="1" vertex="1">
          <mxGeometry x="536" y="403" width="224" height="160" as="geometry" />
        </mxCell>
        <mxCell id="gjVu4_HeoYwnwXax0QVn-6" value="" style="shape=partialRectangle;collapsible=0;dropTarget=0;pointerEvents=0;fillColor=none;points=[[0,0.5],[1,0.5]];portConstraint=eastwest;top=0;left=0;right=0;bottom=0;" parent="gjVu4_HeoYwnwXax0QVn-5" vertex="1">
          <mxGeometry y="30" width="224" height="30" as="geometry" />
        </mxCell>
        <mxCell id="gjVu4_HeoYwnwXax0QVn-7" value="PK,FK" style="shape=partialRectangle;overflow=hidden;connectable=0;fillColor=none;top=0;left=0;bottom=0;right=0;fontStyle=1" parent="gjVu4_HeoYwnwXax0QVn-6" vertex="1">
          <mxGeometry width="50" height="30" as="geometry">
            <mxRectangle width="50" height="30" as="alternateBounds" />
          </mxGeometry>
        </mxCell>
        <mxCell id="gjVu4_HeoYwnwXax0QVn-8" value="Id" style="shape=partialRectangle;overflow=hidden;connectable=0;fillColor=none;top=0;left=0;bottom=0;right=0;align=left;spacingLeft=6;" parent="gjVu4_HeoYwnwXax0QVn-6" vertex="1">
          <mxGeometry x="50" width="136.6875762939453" height="30" as="geometry">
            <mxRectangle width="136.6875762939453" height="30" as="alternateBounds" />
          </mxGeometry>
        </mxCell>
        <mxCell id="gjVu4_HeoYwnwXax0QVn-9" value="int" style="shape=partialRectangle;overflow=hidden;connectable=0;fillColor=none;top=0;left=0;bottom=0;right=0;align=left;spacingLeft=6;" parent="gjVu4_HeoYwnwXax0QVn-6" vertex="1">
          <mxGeometry x="186.6875762939453" width="37.31242370605469" height="30" as="geometry">
            <mxRectangle width="37.31242370605469" height="30" as="alternateBounds" />
          </mxGeometry>
        </mxCell>
        <mxCell id="gjVu4_HeoYwnwXax0QVn-10" style="shape=partialRectangle;collapsible=0;dropTarget=0;pointerEvents=0;fillColor=none;points=[[0,0.5],[1,0.5]];portConstraint=eastwest;top=0;left=0;right=0;bottom=0;" parent="gjVu4_HeoYwnwXax0QVn-5" vertex="1">
          <mxGeometry y="60" width="224" height="30" as="geometry" />
        </mxCell>
        <mxCell id="gjVu4_HeoYwnwXax0QVn-11" value="PK,FK" style="shape=partialRectangle;overflow=hidden;connectable=0;fillColor=none;top=0;left=0;bottom=0;right=0;fontStyle=1" parent="gjVu4_HeoYwnwXax0QVn-10" vertex="1">
          <mxGeometry width="50" height="30" as="geometry">
            <mxRectangle width="50" height="30" as="alternateBounds" />
          </mxGeometry>
        </mxCell>
        <mxCell id="gjVu4_HeoYwnwXax0QVn-12" value="ItemId" style="shape=partialRectangle;overflow=hidden;connectable=0;fillColor=none;top=0;left=0;bottom=0;right=0;align=left;spacingLeft=6;" parent="gjVu4_HeoYwnwXax0QVn-10" vertex="1">
          <mxGeometry x="50" width="136.6875762939453" height="30" as="geometry">
            <mxRectangle width="136.6875762939453" height="30" as="alternateBounds" />
          </mxGeometry>
        </mxCell>
        <mxCell id="gjVu4_HeoYwnwXax0QVn-13" value="int" style="shape=partialRectangle;overflow=hidden;connectable=0;fillColor=none;top=0;left=0;bottom=0;right=0;align=left;spacingLeft=6;" parent="gjVu4_HeoYwnwXax0QVn-10" vertex="1">
          <mxGeometry x="186.6875762939453" width="37.31242370605469" height="30" as="geometry">
            <mxRectangle width="37.31242370605469" height="30" as="alternateBounds" />
          </mxGeometry>
        </mxCell>
        <mxCell id="gjVu4_HeoYwnwXax0QVn-14" style="shape=partialRectangle;collapsible=0;dropTarget=0;pointerEvents=0;fillColor=none;points=[[0,0.5],[1,0.5]];portConstraint=eastwest;top=0;left=0;right=0;bottom=0;" parent="gjVu4_HeoYwnwXax0QVn-5" vertex="1">
          <mxGeometry y="90" width="224" height="30" as="geometry" />
        </mxCell>
        <mxCell id="gjVu4_HeoYwnwXax0QVn-15" value="PK,FK" style="shape=partialRectangle;overflow=hidden;connectable=0;fillColor=none;top=0;left=0;bottom=0;right=0;fontStyle=1" parent="gjVu4_HeoYwnwXax0QVn-14" vertex="1">
          <mxGeometry width="50" height="30" as="geometry">
            <mxRectangle width="50" height="30" as="alternateBounds" />
          </mxGeometry>
        </mxCell>
        <mxCell id="gjVu4_HeoYwnwXax0QVn-16" value="ContainerTypeId" style="shape=partialRectangle;overflow=hidden;connectable=0;fillColor=none;top=0;left=0;bottom=0;right=0;align=left;spacingLeft=6;" parent="gjVu4_HeoYwnwXax0QVn-14" vertex="1">
          <mxGeometry x="50" width="136.6875762939453" height="30" as="geometry">
            <mxRectangle width="136.6875762939453" height="30" as="alternateBounds" />
          </mxGeometry>
        </mxCell>
        <mxCell id="gjVu4_HeoYwnwXax0QVn-17" value="int" style="shape=partialRectangle;overflow=hidden;connectable=0;fillColor=none;top=0;left=0;bottom=0;right=0;align=left;spacingLeft=6;" parent="gjVu4_HeoYwnwXax0QVn-14" vertex="1">
          <mxGeometry x="186.6875762939453" width="37.31242370605469" height="30" as="geometry">
            <mxRectangle width="37.31242370605469" height="30" as="alternateBounds" />
          </mxGeometry>
        </mxCell>
        <mxCell id="gjVu4_HeoYwnwXax0QVn-18" style="shape=partialRectangle;collapsible=0;dropTarget=0;pointerEvents=0;fillColor=none;points=[[0,0.5],[1,0.5]];portConstraint=eastwest;top=0;left=0;right=0;bottom=0;" parent="gjVu4_HeoYwnwXax0QVn-5" vertex="1">
          <mxGeometry y="120" width="224" height="30" as="geometry" />
        </mxCell>
        <mxCell id="gjVu4_HeoYwnwXax0QVn-19" value="" style="shape=partialRectangle;overflow=hidden;connectable=0;fillColor=none;top=0;left=0;bottom=0;right=0;fontStyle=1" parent="gjVu4_HeoYwnwXax0QVn-18" vertex="1">
          <mxGeometry width="50" height="30" as="geometry">
            <mxRectangle width="50" height="30" as="alternateBounds" />
          </mxGeometry>
        </mxCell>
        <mxCell id="gjVu4_HeoYwnwXax0QVn-20" value="ContainerAmount" style="shape=partialRectangle;overflow=hidden;connectable=0;fillColor=none;top=0;left=0;bottom=0;right=0;align=left;spacingLeft=6;" parent="gjVu4_HeoYwnwXax0QVn-18" vertex="1">
          <mxGeometry x="50" width="136.6875762939453" height="30" as="geometry">
            <mxRectangle width="136.6875762939453" height="30" as="alternateBounds" />
          </mxGeometry>
        </mxCell>
        <mxCell id="gjVu4_HeoYwnwXax0QVn-21" value="int" style="shape=partialRectangle;overflow=hidden;connectable=0;fillColor=none;top=0;left=0;bottom=0;right=0;align=left;spacingLeft=6;" parent="gjVu4_HeoYwnwXax0QVn-18" vertex="1">
          <mxGeometry x="186.6875762939453" width="37.31242370605469" height="30" as="geometry">
            <mxRectangle width="37.31242370605469" height="30" as="alternateBounds" />
          </mxGeometry>
        </mxCell>
        <mxCell id="e2aB3ARD7iVwylxIXB8S-30" value="VoyagePort" style="shape=table;startSize=30;container=1;collapsible=1;childLayout=tableLayout;fixedRows=1;rowLines=0;fontStyle=1;align=center;resizeLast=1;" vertex="1" parent="1">
          <mxGeometry x="213" y="443" width="230" height="220" as="geometry" />
        </mxCell>
        <mxCell id="e2aB3ARD7iVwylxIXB8S-31" value="" style="shape=partialRectangle;collapsible=0;dropTarget=0;pointerEvents=0;fillColor=none;points=[[0,0.5],[1,0.5]];portConstraint=eastwest;top=0;left=0;right=0;bottom=0;" vertex="1" parent="e2aB3ARD7iVwylxIXB8S-30">
          <mxGeometry y="30" width="230" height="30" as="geometry" />
        </mxCell>
        <mxCell id="e2aB3ARD7iVwylxIXB8S-32" value="PK, FK" style="shape=partialRectangle;overflow=hidden;connectable=0;fillColor=none;top=0;left=0;bottom=0;right=0;fontStyle=1" vertex="1" parent="e2aB3ARD7iVwylxIXB8S-31">
          <mxGeometry width="53.54998779296875" height="30" as="geometry">
            <mxRectangle width="53.54998779296875" height="30" as="alternateBounds" />
          </mxGeometry>
        </mxCell>
        <mxCell id="e2aB3ARD7iVwylxIXB8S-33" value="VoyageId" style="shape=partialRectangle;overflow=hidden;connectable=0;fillColor=none;top=0;left=0;bottom=0;right=0;align=left;spacingLeft=6;" vertex="1" parent="e2aB3ARD7iVwylxIXB8S-31">
          <mxGeometry x="53.54998779296875" width="133.13758850097656" height="30" as="geometry">
            <mxRectangle width="133.13758850097656" height="30" as="alternateBounds" />
          </mxGeometry>
        </mxCell>
        <mxCell id="e2aB3ARD7iVwylxIXB8S-34" value="int" style="shape=partialRectangle;overflow=hidden;connectable=0;fillColor=none;top=0;left=0;bottom=0;right=0;align=left;spacingLeft=6;" vertex="1" parent="e2aB3ARD7iVwylxIXB8S-31">
          <mxGeometry x="186.6875762939453" width="43.31242370605469" height="30" as="geometry">
            <mxRectangle width="43.31242370605469" height="30" as="alternateBounds" />
          </mxGeometry>
        </mxCell>
        <mxCell id="e2aB3ARD7iVwylxIXB8S-35" style="shape=partialRectangle;collapsible=0;dropTarget=0;pointerEvents=0;fillColor=none;points=[[0,0.5],[1,0.5]];portConstraint=eastwest;top=0;left=0;right=0;bottom=0;" vertex="1" parent="e2aB3ARD7iVwylxIXB8S-30">
          <mxGeometry y="60" width="230" height="30" as="geometry" />
        </mxCell>
        <mxCell id="e2aB3ARD7iVwylxIXB8S-36" value="PK, FK" style="shape=partialRectangle;overflow=hidden;connectable=0;fillColor=none;top=0;left=0;bottom=0;right=0;fontStyle=1" vertex="1" parent="e2aB3ARD7iVwylxIXB8S-35">
          <mxGeometry width="53.54998779296875" height="30" as="geometry">
            <mxRectangle width="53.54998779296875" height="30" as="alternateBounds" />
          </mxGeometry>
        </mxCell>
        <mxCell id="e2aB3ARD7iVwylxIXB8S-37" value="PortIdCurrent" style="shape=partialRectangle;overflow=hidden;connectable=0;fillColor=none;top=0;left=0;bottom=0;right=0;align=left;spacingLeft=6;" vertex="1" parent="e2aB3ARD7iVwylxIXB8S-35">
          <mxGeometry x="53.54998779296875" width="133.13758850097656" height="30" as="geometry">
            <mxRectangle width="133.13758850097656" height="30" as="alternateBounds" />
          </mxGeometry>
        </mxCell>
        <mxCell id="e2aB3ARD7iVwylxIXB8S-38" value="int" style="shape=partialRectangle;overflow=hidden;connectable=0;fillColor=none;top=0;left=0;bottom=0;right=0;align=left;spacingLeft=6;" vertex="1" parent="e2aB3ARD7iVwylxIXB8S-35">
          <mxGeometry x="186.6875762939453" width="43.31242370605469" height="30" as="geometry">
            <mxRectangle width="43.31242370605469" height="30" as="alternateBounds" />
          </mxGeometry>
        </mxCell>
        <mxCell id="e2aB3ARD7iVwylxIXB8S-39" style="shape=partialRectangle;collapsible=0;dropTarget=0;pointerEvents=0;fillColor=none;points=[[0,0.5],[1,0.5]];portConstraint=eastwest;top=0;left=0;right=0;bottom=0;" vertex="1" parent="e2aB3ARD7iVwylxIXB8S-30">
          <mxGeometry y="90" width="230" height="30" as="geometry" />
        </mxCell>
        <mxCell id="e2aB3ARD7iVwylxIXB8S-40" value="PK, FK" style="shape=partialRectangle;overflow=hidden;connectable=0;fillColor=none;top=0;left=0;bottom=0;right=0;fontStyle=1" vertex="1" parent="e2aB3ARD7iVwylxIXB8S-39">
          <mxGeometry width="53.54998779296875" height="30" as="geometry">
            <mxRectangle width="53.54998779296875" height="30" as="alternateBounds" />
          </mxGeometry>
        </mxCell>
        <mxCell id="e2aB3ARD7iVwylxIXB8S-41" value="PortIdNext" style="shape=partialRectangle;overflow=hidden;connectable=0;fillColor=none;top=0;left=0;bottom=0;right=0;align=left;spacingLeft=6;" vertex="1" parent="e2aB3ARD7iVwylxIXB8S-39">
          <mxGeometry x="53.54998779296875" width="133.13758850097656" height="30" as="geometry">
            <mxRectangle width="133.13758850097656" height="30" as="alternateBounds" />
          </mxGeometry>
        </mxCell>
        <mxCell id="e2aB3ARD7iVwylxIXB8S-42" value="int" style="shape=partialRectangle;overflow=hidden;connectable=0;fillColor=none;top=0;left=0;bottom=0;right=0;align=left;spacingLeft=6;" vertex="1" parent="e2aB3ARD7iVwylxIXB8S-39">
          <mxGeometry x="186.6875762939453" width="43.31242370605469" height="30" as="geometry">
            <mxRectangle width="43.31242370605469" height="30" as="alternateBounds" />
          </mxGeometry>
        </mxCell>
        <mxCell id="e2aB3ARD7iVwylxIXB8S-43" style="shape=partialRectangle;collapsible=0;dropTarget=0;pointerEvents=0;fillColor=none;points=[[0,0.5],[1,0.5]];portConstraint=eastwest;top=0;left=0;right=0;bottom=0;" vertex="1" parent="e2aB3ARD7iVwylxIXB8S-30">
          <mxGeometry y="120" width="230" height="30" as="geometry" />
        </mxCell>
        <mxCell id="e2aB3ARD7iVwylxIXB8S-44" value="" style="shape=partialRectangle;overflow=hidden;connectable=0;fillColor=none;top=0;left=0;bottom=0;right=0;fontStyle=1" vertex="1" parent="e2aB3ARD7iVwylxIXB8S-43">
          <mxGeometry width="53.54998779296875" height="30" as="geometry">
            <mxRectangle width="53.54998779296875" height="30" as="alternateBounds" />
          </mxGeometry>
        </mxCell>
        <mxCell id="e2aB3ARD7iVwylxIXB8S-45" value="DepartureDate" style="shape=partialRectangle;overflow=hidden;connectable=0;fillColor=none;top=0;left=0;bottom=0;right=0;align=left;spacingLeft=6;" vertex="1" parent="e2aB3ARD7iVwylxIXB8S-43">
          <mxGeometry x="53.54998779296875" width="133.13758850097656" height="30" as="geometry">
            <mxRectangle width="133.13758850097656" height="30" as="alternateBounds" />
          </mxGeometry>
        </mxCell>
        <mxCell id="e2aB3ARD7iVwylxIXB8S-46" value="date" style="shape=partialRectangle;overflow=hidden;connectable=0;fillColor=none;top=0;left=0;bottom=0;right=0;align=left;spacingLeft=6;" vertex="1" parent="e2aB3ARD7iVwylxIXB8S-43">
          <mxGeometry x="186.6875762939453" width="43.31242370605469" height="30" as="geometry">
            <mxRectangle width="43.31242370605469" height="30" as="alternateBounds" />
          </mxGeometry>
        </mxCell>
        <mxCell id="e2aB3ARD7iVwylxIXB8S-47" style="shape=partialRectangle;collapsible=0;dropTarget=0;pointerEvents=0;fillColor=none;points=[[0,0.5],[1,0.5]];portConstraint=eastwest;top=0;left=0;right=0;bottom=0;" vertex="1" parent="e2aB3ARD7iVwylxIXB8S-30">
          <mxGeometry y="150" width="230" height="30" as="geometry" />
        </mxCell>
        <mxCell id="e2aB3ARD7iVwylxIXB8S-48" style="shape=partialRectangle;overflow=hidden;connectable=0;fillColor=none;top=0;left=0;bottom=0;right=0;fontStyle=1" vertex="1" parent="e2aB3ARD7iVwylxIXB8S-47">
          <mxGeometry width="53.54998779296875" height="30" as="geometry">
            <mxRectangle width="53.54998779296875" height="30" as="alternateBounds" />
          </mxGeometry>
        </mxCell>
        <mxCell id="e2aB3ARD7iVwylxIXB8S-49" value="ArrivalDate" style="shape=partialRectangle;overflow=hidden;connectable=0;fillColor=none;top=0;left=0;bottom=0;right=0;align=left;spacingLeft=6;" vertex="1" parent="e2aB3ARD7iVwylxIXB8S-47">
          <mxGeometry x="53.54998779296875" width="133.13758850097656" height="30" as="geometry">
            <mxRectangle width="133.13758850097656" height="30" as="alternateBounds" />
          </mxGeometry>
        </mxCell>
        <mxCell id="e2aB3ARD7iVwylxIXB8S-50" value="date" style="shape=partialRectangle;overflow=hidden;connectable=0;fillColor=none;top=0;left=0;bottom=0;right=0;align=left;spacingLeft=6;" vertex="1" parent="e2aB3ARD7iVwylxIXB8S-47">
          <mxGeometry x="186.6875762939453" width="43.31242370605469" height="30" as="geometry">
            <mxRectangle width="43.31242370605469" height="30" as="alternateBounds" />
          </mxGeometry>
        </mxCell>
        <mxCell id="e2aB3ARD7iVwylxIXB8S-51" style="shape=partialRectangle;collapsible=0;dropTarget=0;pointerEvents=0;fillColor=none;points=[[0,0.5],[1,0.5]];portConstraint=eastwest;top=0;left=0;right=0;bottom=0;" vertex="1" parent="e2aB3ARD7iVwylxIXB8S-30">
          <mxGeometry y="180" width="230" height="30" as="geometry" />
        </mxCell>
        <mxCell id="e2aB3ARD7iVwylxIXB8S-52" style="shape=partialRectangle;overflow=hidden;connectable=0;fillColor=none;top=0;left=0;bottom=0;right=0;fontStyle=1" vertex="1" parent="e2aB3ARD7iVwylxIXB8S-51">
          <mxGeometry width="53.54998779296875" height="30" as="geometry">
            <mxRectangle width="53.54998779296875" height="30" as="alternateBounds" />
          </mxGeometry>
        </mxCell>
        <mxCell id="e2aB3ARD7iVwylxIXB8S-53" value="TrajectDistanceInNMile" style="shape=partialRectangle;overflow=hidden;connectable=0;fillColor=none;top=0;left=0;bottom=0;right=0;align=left;spacingLeft=6;" vertex="1" parent="e2aB3ARD7iVwylxIXB8S-51">
          <mxGeometry x="53.54998779296875" width="133.13758850097656" height="30" as="geometry">
            <mxRectangle width="133.13758850097656" height="30" as="alternateBounds" />
          </mxGeometry>
        </mxCell>
        <mxCell id="e2aB3ARD7iVwylxIXB8S-54" value="float" style="shape=partialRectangle;overflow=hidden;connectable=0;fillColor=none;top=0;left=0;bottom=0;right=0;align=left;spacingLeft=6;" vertex="1" parent="e2aB3ARD7iVwylxIXB8S-51">
          <mxGeometry x="186.6875762939453" width="43.31242370605469" height="30" as="geometry">
            <mxRectangle width="43.31242370605469" height="30" as="alternateBounds" />
          </mxGeometry>
        </mxCell>
        <mxCell id="e2aB3ARD7iVwylxIXB8S-56" style="edgeStyle=orthogonalEdgeStyle;rounded=0;orthogonalLoop=1;jettySize=auto;html=1;exitX=0;exitY=0.5;exitDx=0;exitDy=0;entryX=0;entryY=0.5;entryDx=0;entryDy=0;" edge="1" parent="1" source="5pAEpDDECJuHS7MzD11g-209" target="C-vyLk0tnHw3VtMMgP7b-24">
          <mxGeometry relative="1" as="geometry">
            <Array as="points">
              <mxPoint x="-217" y="518" />
              <mxPoint x="-217" y="740" />
            </Array>
          </mxGeometry>
        </mxCell>
        <mxCell id="e2aB3ARD7iVwylxIXB8S-57" style="edgeStyle=orthogonalEdgeStyle;rounded=0;orthogonalLoop=1;jettySize=auto;html=1;exitX=0;exitY=0.5;exitDx=0;exitDy=0;" edge="1" parent="1" source="5pAEpDDECJuHS7MzD11g-213" target="5pAEpDDECJuHS7MzD11g-121">
          <mxGeometry relative="1" as="geometry">
            <Array as="points">
              <mxPoint x="-191" y="548" />
              <mxPoint x="-191" y="141" />
            </Array>
          </mxGeometry>
        </mxCell>
        <mxCell id="e2aB3ARD7iVwylxIXB8S-58" style="edgeStyle=orthogonalEdgeStyle;rounded=0;orthogonalLoop=1;jettySize=auto;html=1;exitX=0;exitY=0.5;exitDx=0;exitDy=0;" edge="1" parent="1" source="5pAEpDDECJuHS7MzD11g-363" target="5pAEpDDECJuHS7MzD11g-121">
          <mxGeometry relative="1" as="geometry">
            <Array as="points">
              <mxPoint x="-199" y="578" />
              <mxPoint x="-199" y="124" />
            </Array>
          </mxGeometry>
        </mxCell>
        <mxCell id="e2aB3ARD7iVwylxIXB8S-59" style="edgeStyle=orthogonalEdgeStyle;rounded=0;orthogonalLoop=1;jettySize=auto;html=1;exitX=0;exitY=0.5;exitDx=0;exitDy=0;" edge="1" parent="1" source="e2aB3ARD7iVwylxIXB8S-31" target="5pAEpDDECJuHS7MzD11g-197">
          <mxGeometry relative="1" as="geometry" />
        </mxCell>
        <mxCell id="e2aB3ARD7iVwylxIXB8S-60" style="edgeStyle=orthogonalEdgeStyle;rounded=0;orthogonalLoop=1;jettySize=auto;html=1;exitX=0;exitY=0.5;exitDx=0;exitDy=0;entryX=0.001;entryY=0.664;entryDx=0;entryDy=0;entryPerimeter=0;" edge="1" parent="1" source="e2aB3ARD7iVwylxIXB8S-35" target="5pAEpDDECJuHS7MzD11g-121">
          <mxGeometry relative="1" as="geometry">
            <Array as="points">
              <mxPoint x="61" y="518" />
              <mxPoint x="61" y="136" />
              <mxPoint x="75" y="136" />
            </Array>
          </mxGeometry>
        </mxCell>
        <mxCell id="e2aB3ARD7iVwylxIXB8S-61" style="edgeStyle=orthogonalEdgeStyle;rounded=0;orthogonalLoop=1;jettySize=auto;html=1;exitX=0;exitY=0.5;exitDx=0;exitDy=0;" edge="1" parent="1" source="e2aB3ARD7iVwylxIXB8S-39" target="5pAEpDDECJuHS7MzD11g-121">
          <mxGeometry relative="1" as="geometry">
            <Array as="points">
              <mxPoint x="48" y="548" />
              <mxPoint x="48" y="130" />
            </Array>
          </mxGeometry>
        </mxCell>
        <mxCell id="e2aB3ARD7iVwylxIXB8S-62" style="edgeStyle=orthogonalEdgeStyle;rounded=0;orthogonalLoop=1;jettySize=auto;html=1;exitX=0;exitY=0.5;exitDx=0;exitDy=0;entryX=0;entryY=0.5;entryDx=0;entryDy=0;" edge="1" parent="1" source="gjVu4_HeoYwnwXax0QVn-10" target="5pAEpDDECJuHS7MzD11g-6">
          <mxGeometry relative="1" as="geometry" />
        </mxCell>
        <mxCell id="e2aB3ARD7iVwylxIXB8S-63" style="edgeStyle=orthogonalEdgeStyle;rounded=0;orthogonalLoop=1;jettySize=auto;html=1;exitX=1;exitY=0.5;exitDx=0;exitDy=0;entryX=0;entryY=0.5;entryDx=0;entryDy=0;" edge="1" parent="1" source="gjVu4_HeoYwnwXax0QVn-14" target="5pAEpDDECJuHS7MzD11g-63">
          <mxGeometry relative="1" as="geometry" />
        </mxCell>
        <mxCell id="e2aB3ARD7iVwylxIXB8S-64" style="edgeStyle=orthogonalEdgeStyle;rounded=0;orthogonalLoop=1;jettySize=auto;html=1;exitX=0;exitY=0.5;exitDx=0;exitDy=0;entryX=0;entryY=0.5;entryDx=0;entryDy=0;" edge="1" parent="1" source="5pAEpDDECJuHS7MzD11g-171" target="5pAEpDDECJuHS7MzD11g-96">
          <mxGeometry relative="1" as="geometry" />
        </mxCell>
        <mxCell id="e2aB3ARD7iVwylxIXB8S-65" style="edgeStyle=orthogonalEdgeStyle;rounded=0;orthogonalLoop=1;jettySize=auto;html=1;exitX=0;exitY=0.5;exitDx=0;exitDy=0;entryX=1;entryY=0.5;entryDx=0;entryDy=0;" edge="1" parent="1" source="5pAEpDDECJuHS7MzD11g-292" target="5pAEpDDECJuHS7MzD11g-121">
          <mxGeometry relative="1" as="geometry" />
        </mxCell>
        <mxCell id="e2aB3ARD7iVwylxIXB8S-66" style="edgeStyle=orthogonalEdgeStyle;rounded=0;orthogonalLoop=1;jettySize=auto;html=1;exitX=0;exitY=0.5;exitDx=0;exitDy=0;entryX=1;entryY=0.5;entryDx=0;entryDy=0;" edge="1" parent="1" source="5pAEpDDECJuHS7MzD11g-288" target="5pAEpDDECJuHS7MzD11g-121">
          <mxGeometry relative="1" as="geometry" />
        </mxCell>
        <mxCell id="e2aB3ARD7iVwylxIXB8S-67" style="edgeStyle=orthogonalEdgeStyle;rounded=0;orthogonalLoop=1;jettySize=auto;html=1;exitX=0;exitY=0.5;exitDx=0;exitDy=0;entryX=0;entryY=0.5;entryDx=0;entryDy=0;" edge="1" parent="1" source="gjVu4_HeoYwnwXax0QVn-6" target="5pAEpDDECJuHS7MzD11g-167">
          <mxGeometry relative="1" as="geometry" />
        </mxCell>
        <mxCell id="e2aB3ARD7iVwylxIXB8S-68" style="edgeStyle=orthogonalEdgeStyle;rounded=0;orthogonalLoop=1;jettySize=auto;html=1;exitX=0;exitY=0.5;exitDx=0;exitDy=0;entryX=0;entryY=0.5;entryDx=0;entryDy=0;" edge="1" parent="1" source="5pAEpDDECJuHS7MzD11g-309" target="5pAEpDDECJuHS7MzD11g-197">
          <mxGeometry relative="1" as="geometry">
            <Array as="points">
              <mxPoint x="477" y="162" />
              <mxPoint x="477" y="72" />
              <mxPoint x="-219" y="72" />
              <mxPoint x="-219" y="488" />
            </Array>
          </mxGeometry>
        </mxCell>
      </root>
    </mxGraphModel>
  </diagram>
</mxfile>
